<svg data-v-423bf9ae="" xmlns="http://www.w3.org/2000/svg" viewBox="0 0 738 96" class="iconLeftSlogan"><!----><!----><!----><g data-v-423bf9ae="" id="ab61ce09-e891-475b-892b-f5b4751ee1aa" fill="#000000" transform="matrix(4.224608525153769,0,0,4.224608525153769,113.5462786859863,-11.395881694731862)"><path d="M2.95 3.85Q2.83 4.19 2.83 4.66L2.83 4.66Q2.83 5.04 2.90 5.50L2.90 5.50Q2.91 5.60 2.94 5.90Q2.97 6.20 2.95 6.44L2.95 6.44Q2.93 7.29 2.84 9.17L2.84 9.17Q2.77 10.77 2.72 12.49Q2.66 14.21 2.66 15.65L2.66 15.65Q2.80 15.79 3.11 15.95L3.11 15.95Q3.39 16.09 3.51 16.21L3.51 16.21Q3.51 16.34 3.46 16.40Q3.40 16.46 3.26 16.56L3.26 16.56Q3.09 16.66 2.95 16.80L2.95 16.80Q2.80 16.73 2.42 16.67L2.42 16.67Q2.23 16.66 1.76 16.66L1.76 16.66Q1.29 16.66 0.97 16.63Q0.66 16.60 0.36 16.51L0.36 16.51Q0.34 16.49 0.29 16.41Q0.24 16.32 0.24 16.21L0.24 16.21Q0.24 16.06 0.36 15.95L0.36 15.95Q0.36 15.85 0.41 15.83Q0.45 15.81 0.55 15.81L0.55 15.81Q0.67 15.81 0.73 15.79L0.73 15.79Q0.87 15.74 0.92 15.65L0.92 15.65Q1.05 15.53 1.05 15.29L1.05 15.29Q1.05 15.18 1.02 15.03Q0.99 14.88 0.98 14.83L0.98 14.83Q0.92 14.57 0.92 14.50L0.92 14.50Q0.92 14.07 0.95 13.23L0.95 13.23L0.97 12.00Q0.95 11.93 0.94 11.74Q0.92 11.55 0.92 11.33L0.92 11.33L0.92 8.74L0.92 3.85Q0.66 3.85 0.51 3.80Q0.36 3.75 0.36 3.56L0.36 3.56L0.36 2.98Q0.36 2.86 0.46 2.86L0.46 2.86Q0.50 2.86 0.74 2.92Q0.98 2.98 1.22 2.98L1.22 2.98Q1.37 2.98 1.88 2.93L1.88 2.93Q1.99 2.91 2.28 2.88Q2.58 2.86 2.80 2.86L2.80 2.86Q3.28 2.86 3.51 2.98L3.51 2.98Q3.63 3.09 3.63 3.26L3.63 3.26Q3.63 3.49 3.44 3.67Q3.25 3.85 2.95 3.85L2.95 3.85ZM12.66 3.00Q12.66 3.12 12.59 3.25Q12.53 3.37 12.47 3.45Q12.40 3.53 12.38 3.56L12.38 3.56L11.80 3.56Q11.68 3.68 11.68 3.85L11.68 3.85Q11.68 3.92 11.73 4.14L11.73 4.14Q11.80 4.52 11.80 4.69L11.80 4.69L11.80 7.87Q11.80 12.96 12.03 16.17L12.03 16.17Q12.04 16.51 11.86 16.66Q11.68 16.81 11.41 16.81L11.41 16.81Q11.21 16.81 11.03 16.74Q10.84 16.67 10.74 16.58L10.74 16.58Q10.63 16.24 10.48 15.80Q10.33 15.36 10.15 14.80L10.15 14.80Q9.13 11.80 8.71 10.32L8.71 10.32Q8.58 9.84 8.33 9.28Q8.08 8.71 8.05 8.65L8.05 8.65Q7.97 8.47 7.92 8.35Q7.88 8.23 7.87 8.20L7.87 8.20Q7.76 7.95 7.70 7.56L7.70 7.56Q7.63 7.20 7.55 7.01Q7.46 6.82 7.22 6.69L7.22 6.69L7.22 8.65L7.22 10.89L7.22 13.15L7.22 13.99L7.22 15.39Q7.41 15.57 7.60 15.62Q7.78 15.67 8.05 15.67L8.05 15.67Q8.05 15.81 8.08 16.09L8.08 16.09Q8.11 16.31 8.11 16.39L8.11 16.39Q8.11 16.59 8.03 16.69Q7.95 16.79 7.74 16.79L7.74 16.79L7.11 16.80L5.24 16.84Q5.12 16.84 5.09 16.75Q5.05 16.66 5.05 16.48L5.05 16.48Q5.05 16.28 5.07 16.17L5.07 16.17L5.08 15.75Q5.11 15.76 5.20 15.79Q5.29 15.82 5.38 15.82L5.38 15.82Q5.54 15.82 5.54 15.67L5.54 15.67Q5.70 15.34 5.70 14.81L5.70 14.81Q5.70 14.59 5.67 14.20L5.67 14.20Q5.64 13.83 5.64 13.71L5.64 13.71Q5.64 13.22 5.59 12.21L5.59 12.21Q5.54 11.59 5.54 11.19L5.54 11.19L5.53 9.21Q5.53 8.89 5.47 8.36L5.47 8.36Q5.42 7.83 5.42 7.56L5.42 7.56Q5.42 7.48 5.35 7.13L5.35 7.13Q5.26 6.82 5.26 6.69L5.26 6.69L5.26 6.41L5.26 5.56Q5.26 5.35 5.25 5.26L5.25 5.26L5.24 4.84Q5.24 4.62 5.10 4.28L5.10 4.28Q4.98 4.00 4.98 3.88L4.98 3.88Q4.58 3.88 4.35 3.71Q4.13 3.54 4.13 3.32L4.13 3.32Q4.13 3.11 4.27 2.95Q4.41 2.80 4.62 2.80L4.62 2.80Q4.73 2.80 4.79 2.79Q4.86 2.79 4.91 2.79L4.91 2.79Q5.04 2.76 5.26 2.74L5.26 2.74Q5.36 2.73 5.49 2.75Q5.61 2.77 5.68 2.77L5.68 2.77Q5.96 2.80 6.17 2.80L6.17 2.80Q6.34 2.80 6.45 2.91Q6.57 3.02 6.62 3.15Q6.66 3.28 6.66 3.32L6.66 3.32Q7.21 4.12 7.60 5.01Q7.99 5.89 8.53 7.28L8.53 7.28Q8.99 8.50 9.18 8.93L9.18 8.93Q9.37 9.51 9.56 9.93Q9.76 10.36 10.04 10.89L10.04 10.89Q10.04 11.09 10.09 11.26Q10.14 11.44 10.28 11.76L10.28 11.76Q10.32 11.84 10.42 12.21L10.42 12.21Q10.53 12.56 10.67 12.94Q10.81 13.33 10.93 13.50L10.93 13.50Q10.96 13.54 10.97 13.49Q10.98 13.44 10.98 13.34L10.98 13.34Q10.98 13.13 10.92 12.40L10.92 12.40Q10.86 11.68 10.86 11.47L10.86 11.47Q10.86 10.84 10.92 9.27L10.92 9.27Q10.98 7.59 10.98 6.65L10.98 6.65L10.98 6.37Q10.98 5.94 10.84 5.24L10.84 5.24Q10.70 4.54 10.70 4.12L10.70 4.12Q10.43 3.85 10.23 3.70Q10.02 3.56 9.84 3.56L9.84 3.56Q9.76 3.47 9.65 3.40Q9.55 3.32 9.50 3.25Q9.45 3.18 9.45 3.08L9.45 3.08Q9.45 2.93 9.56 2.70L9.56 2.70Q9.69 2.70 9.77 2.74Q9.84 2.79 10.07 2.79L10.07 2.79Q10.33 2.79 10.49 2.75Q10.65 2.72 10.70 2.70L10.70 2.70Q10.86 2.74 11.06 2.74L11.06 2.74Q11.20 2.74 11.51 2.72L11.51 2.72Q11.94 2.69 12.12 2.70L12.12 2.70Q12.53 2.73 12.66 3.00L12.66 3.00ZM20.31 5.45Q20.24 5.38 20.19 5.18L20.19 5.18Q20.17 5.07 20.17 4.83L20.17 4.83Q20.17 4.56 20.15 4.37Q20.12 4.17 20.02 3.98L20.02 3.98Q19.89 3.85 19.57 3.85L19.57 3.85Q19.29 3.85 18.91 3.92L18.91 3.92Q18.47 3.98 18.28 3.98L18.28 3.98Q18.16 4.23 18.16 4.65L18.16 4.65Q18.16 4.98 18.23 5.40L18.23 5.40Q18.28 5.85 18.28 6.03L18.28 6.03L18.28 11.55L18.28 13.90L18.28 14.49Q18.28 14.80 18.24 15.06L18.24 15.06Q18.21 15.37 18.21 15.53L18.21 15.53Q18.21 15.79 18.28 15.95L18.28 15.95Q18.31 16.02 18.40 16.04Q18.48 16.07 18.54 16.09Q18.61 16.10 18.63 16.10L18.63 16.10Q18.87 16.13 19.01 16.21Q19.15 16.28 19.15 16.52L19.15 16.52Q19.12 16.55 19.04 16.62Q18.96 16.69 18.82 16.75Q18.69 16.81 18.56 16.81L18.56 16.81L15.93 16.81Q15.74 16.81 15.69 16.67Q15.64 16.52 15.64 16.23L15.64 16.23Q15.79 16.23 16.07 16.09L16.07 16.09Q16.35 15.95 16.51 15.95L16.51 15.95L16.52 13.50Q16.52 12.74 16.51 12.43L16.51 12.43Q16.49 12.03 16.49 11.26L16.49 11.26L16.51 8.95L16.51 7.49L16.51 6.90Q16.51 5.81 16.46 5.19Q16.41 4.58 16.21 3.98L16.21 3.98Q15.88 3.88 15.48 3.88L15.48 3.88L15.41 3.88Q14.73 3.88 14.29 4.18Q13.85 4.48 13.85 5.10L13.85 5.10Q13.85 5.25 13.89 5.45L13.89 5.45Q13.87 5.47 13.78 5.52Q13.69 5.57 13.59 5.57L13.59 5.57Q13.44 5.57 13.31 5.45L13.31 5.45Q13.31 5.28 13.26 4.83L13.26 4.83Q13.19 4.20 13.19 4.06L13.19 4.06Q13.19 3.64 13.31 3.39L13.31 3.39Q13.80 3.14 14.25 3.01Q14.70 2.88 15.30 2.88L15.30 2.88Q15.74 2.88 16.74 2.86L16.74 2.86Q17.54 2.81 18.28 2.81L18.28 2.81Q19.32 2.81 20.01 2.91Q20.71 3.01 20.89 3.39L20.89 3.39Q21.07 3.91 21.07 4.40L21.07 4.40Q21.07 4.86 20.89 5.15Q20.71 5.45 20.31 5.45L20.31 5.45ZM27.62 5.08Q27.55 4.98 27.50 4.82L27.50 4.82Q27.48 4.72 27.48 4.51L27.48 4.51Q27.48 4.28 27.45 4.16Q27.43 4.03 27.33 3.95L27.33 3.95Q27.05 3.79 26.75 3.65L26.75 3.65Q26.11 3.65 25.63 3.70Q25.14 3.75 24.77 3.95L24.77 3.95Q24.61 4.09 24.56 4.30Q24.51 4.52 24.51 4.90L24.51 4.90Q24.51 5.56 24.49 6.26L24.49 6.26L24.47 7.07Q24.47 7.28 24.54 7.91L24.54 7.91Q24.60 8.33 24.60 8.50L24.60 8.50Q24.60 8.83 24.47 9.09L24.47 9.09Q24.67 9.25 25.11 9.30Q25.55 9.35 26.18 9.35L26.18 9.35Q26.18 9.00 26.23 8.76Q26.28 8.51 26.47 8.51L26.47 8.51Q26.68 8.51 26.75 8.55Q26.82 8.58 27.05 8.79L27.05 8.79Q26.98 8.93 26.98 9.10L26.98 9.10Q26.96 9.17 26.96 9.34L26.96 9.34Q26.96 9.63 27.01 9.95L27.01 9.95Q27.03 10.35 27.03 10.51L27.03 10.51Q27.03 10.79 26.97 10.94Q26.91 11.09 26.75 11.09L26.75 11.09Q26.71 11.06 26.57 10.98Q26.43 10.89 26.31 10.77Q26.18 10.64 26.18 10.51L26.18 10.51L26.18 10.22L24.77 10.22Q24.61 10.67 24.61 11.41L24.61 11.41Q24.61 11.89 24.65 12.35L24.65 12.35Q24.68 12.91 24.68 13.12L24.68 13.12Q24.68 13.17 24.72 14.64L24.72 14.64Q24.77 15.26 24.77 15.65L24.77 15.65Q25.34 15.85 25.79 15.89Q26.25 15.93 27.05 15.93L27.05 15.93Q27.26 15.83 27.30 15.64L27.30 15.64Q27.34 15.51 27.34 15.23L27.34 15.23Q27.34 14.94 27.39 14.78Q27.44 14.62 27.62 14.52L27.62 14.52Q28 14.52 28.10 14.90Q28.20 15.29 28.20 15.93L28.20 15.93Q28.20 16.13 28.06 16.30Q27.93 16.48 27.62 16.80L27.62 16.80L26.18 16.80Q24.75 16.80 23.75 16.75Q22.75 16.70 21.62 16.51L21.62 16.51L21.62 15.93L22.76 15.93Q22.89 15.19 22.89 14.31L22.89 14.31Q22.89 13.82 22.83 12.78L22.83 12.78Q22.76 11.87 22.76 11.09L22.76 11.09L22.76 10.51L22.76 7.64L22.76 6.51L22.76 3.95L21.62 3.95L21.62 3.37Q22.20 3.22 23.38 3.08L23.38 3.08Q24.50 2.94 25.05 2.80L25.05 2.80L27.90 2.80Q27.93 2.83 28 2.91Q28.07 2.98 28.13 3.12Q28.20 3.25 28.20 3.37L28.20 3.37Q28.20 3.54 28.27 3.85L28.27 3.85Q28.34 4.34 28.34 4.44L28.34 4.44Q28.34 4.75 28.18 4.91Q28.03 5.08 27.62 5.08L27.62 5.08ZM34.78 9.02Q35.17 9.52 35.38 10.26Q35.59 11.00 35.68 11.78Q35.77 12.56 35.84 13.78L35.84 13.78Q35.92 15.19 36.01 15.82L36.01 15.82Q36.32 15.82 36.46 15.87Q36.60 15.92 36.60 16.11L36.60 16.11Q36.60 16.80 35.59 16.80L35.59 16.80Q35.29 16.80 34.51 16.70L34.51 16.70Q34.33 16.52 34.29 16.30L34.29 16.30L34.29 16.21Q34.29 16.11 34.37 15.72L34.37 15.72Q34.41 15.51 34.46 15.23Q34.51 14.94 34.51 14.63L34.51 14.63Q34.51 14.20 34.44 13.83L34.44 13.83Q34.37 13.38 34.37 12.70L34.37 12.70Q34.34 11.87 34.26 11.36Q34.17 10.85 33.85 10.40L33.85 10.40L33.68 10.15Q33.49 9.83 33.26 9.60L33.26 9.60Q33.26 9.48 33.20 9.41Q33.14 9.34 32.98 9.24L32.98 9.24Q32.79 9.13 32.66 9.02L32.66 9.02Q32.37 9.02 32.22 9.07Q32.07 9.11 32.07 9.30L32.07 9.30Q31.93 10.01 31.93 10.88L31.93 10.88Q31.93 11.48 32.02 12.54L32.02 12.54Q32.07 13.47 32.07 13.80L32.07 13.80Q32.07 14.42 32.12 14.82Q32.17 15.22 32.35 15.62L32.35 15.62Q32.35 15.72 32.43 15.79Q32.51 15.85 32.66 15.92L32.66 15.92Q32.80 15.99 32.88 16.04Q32.96 16.10 32.96 16.20L32.96 16.20Q32.96 16.25 32.96 16.42Q32.96 16.59 32.90 16.66Q32.84 16.73 32.70 16.73L32.70 16.73Q32.45 16.73 32.12 16.69L32.12 16.69Q31.99 16.69 31.71 16.67Q31.43 16.65 31.22 16.65L31.22 16.65Q30.59 16.65 30.27 16.81L30.27 16.81Q29.89 16.81 29.71 16.79Q29.53 16.76 29.37 16.63Q29.22 16.49 29.06 16.20L29.06 16.20Q29.27 16.02 29.47 15.97Q29.67 15.92 29.96 15.92L29.96 15.92L29.96 10.81Q29.96 10.67 29.99 10.48Q30.02 10.29 30.03 10.21L30.03 10.21Q30.10 9.88 30.10 9.62L30.10 9.62Q30.10 9.30 29.96 9.02L29.96 9.02Q29.96 8.82 30.00 8.65L30.00 8.65Q30.06 8.29 30.06 8.23L30.06 8.23Q30.09 7.76 30.09 7.55L30.09 7.55Q30.09 7.11 30.03 6.22L30.03 6.22Q30.02 6.05 29.99 5.54Q29.96 5.03 29.96 4.51L29.96 4.51Q29.48 4.51 29.18 4.40Q28.87 4.30 28.87 4.07L28.87 4.07Q28.87 3.64 29.00 3.45Q29.13 3.26 29.38 3.22Q29.62 3.18 30.17 3.18L30.17 3.18Q30.32 3.18 30.52 3.09L30.52 3.09Q30.69 3.01 30.84 3.01L30.84 3.01Q31.68 2.87 32.47 2.87L32.47 2.87Q33.70 2.87 34.57 3.25Q35.45 3.63 35.66 4.51L35.66 4.51Q35.84 5.24 35.84 5.85L35.84 5.85Q35.84 6.47 35.66 6.90L35.66 6.90Q35.55 7.18 35.29 7.52Q35.03 7.85 34.78 8.11L34.78 8.11L34.47 8.41Q34.47 8.58 34.62 8.71L34.62 8.71Q34.78 8.86 34.78 9.02L34.78 9.02ZM31.79 3.93Q31.79 5.31 31.91 7.63L31.91 7.63Q31.91 7.78 32.14 7.78L32.14 7.78Q32.44 7.78 32.91 7.59Q33.39 7.39 33.57 7.21L33.57 7.21Q33.57 7.04 33.71 6.57L33.71 6.57Q33.82 6.22 33.85 6.02L33.85 6.02Q33.91 5.73 33.91 5.54L33.91 5.54Q33.91 5.40 33.88 5.22Q33.85 5.04 33.85 4.82L33.85 4.82Q33.85 4.56 33.74 4.40Q33.63 4.24 33.47 4.10Q33.32 3.96 33.26 3.91L33.26 3.91L31.79 3.93ZM41.75 3.37Q41.75 3.29 41.80 3.18Q41.86 3.07 42.06 3.07L42.06 3.07Q42.35 3.07 42.49 3.12Q42.63 3.16 42.63 3.37L42.63 3.37Q42.77 3.51 42.77 3.74L42.77 3.74Q42.77 3.91 42.69 4.21L42.69 4.21Q42.63 4.47 42.63 4.54L42.63 4.54Q42.59 4.63 42.43 5.01Q42.27 5.38 42.08 5.59Q41.89 5.80 41.68 5.80L41.68 5.80Q41.55 5.80 41.44 5.74L41.44 5.74Q41.31 5.61 41.31 5.36L41.31 5.36Q41.31 5.24 41.37 4.87L41.37 4.87Q41.44 4.38 41.44 4.26L41.44 4.26Q41.22 4.02 40.80 3.84Q40.38 3.65 39.96 3.65L39.96 3.65Q39.73 4.09 39.73 5.00L39.73 5.00Q39.73 5.91 39.96 6.36L39.96 6.36Q40.14 6.73 40.47 7.02Q40.80 7.31 41.37 7.70L41.37 7.70Q42 8.13 42.39 8.48Q42.78 8.82 43.06 9.31L43.06 9.31Q43.41 9.91 43.64 10.37L43.64 10.37Q43.86 10.81 43.97 11.33Q44.09 11.84 44.09 12.33L44.09 12.33Q44.09 13.17 43.95 13.76Q43.82 14.34 43.53 14.99L43.53 14.99Q43.19 15.72 42.63 16.14Q42.07 16.55 41.16 16.77L41.16 16.77L39.96 16.77Q39.58 16.77 39.05 16.37Q38.53 15.96 38.18 15.58L38.18 15.58Q37.74 14.77 37.74 13.87L37.74 13.87Q37.74 13.44 37.87 12.91L37.87 12.91Q37.72 12.91 37.56 13.06L37.56 13.06Q37.44 13.22 37.28 13.22L37.28 13.22Q37.07 13.01 37.02 12.80Q36.97 12.60 36.97 12.32L36.97 12.32Q37.45 12.15 38.08 12.05L38.08 12.05Q38.39 12.00 38.72 11.91Q39.06 11.83 39.37 11.70L39.37 11.70Q39.69 11.70 39.89 11.91Q40.08 12.12 40.08 12.43L40.08 12.43Q40.08 12.67 39.96 12.91L39.96 12.91Q39.66 12.91 39.47 12.96Q39.27 13.01 39.06 13.22L39.06 13.22Q38.75 13.52 38.75 14.17L38.75 14.17Q38.75 14.73 39.00 15.24Q39.24 15.75 39.65 15.89L39.65 15.89Q39.83 15.89 39.96 15.74L39.96 15.74Q39.97 15.72 40.05 15.65Q40.14 15.58 40.26 15.58L40.26 15.58Q41.24 15.09 41.75 14.05Q42.27 13.01 42.27 11.68L42.27 11.68Q42.27 10.81 42.06 9.93L42.06 9.93Q41.82 9.48 41.56 9.22Q41.30 8.96 40.85 8.72L40.85 8.72Q40.45 8.53 40.19 8.32Q39.94 8.12 39.65 7.83L39.65 7.83Q39.51 7.69 39.27 7.55L39.27 7.55Q38.91 7.34 38.65 7.07L38.65 7.07Q38.57 6.97 38.25 6.65Q37.93 6.33 37.74 6.03Q37.56 5.73 37.56 5.46L37.56 5.46Q37.49 5.25 37.49 4.97L37.49 4.97Q37.49 4.03 38.46 3.07L38.46 3.07Q38.57 3.07 38.70 3.02Q38.82 2.97 38.86 2.95L38.86 2.95Q39.26 2.76 39.65 2.76L39.65 2.76Q39.91 2.76 40.10 2.79Q40.28 2.83 40.54 2.91L40.54 2.91L41.16 3.07Q41.19 3.09 41.27 3.16Q41.36 3.23 41.48 3.30Q41.61 3.37 41.75 3.37L41.75 3.37ZM51.44 5.45Q51.37 5.38 51.31 5.18L51.31 5.18Q51.30 5.07 51.30 4.83L51.30 4.83Q51.30 4.56 51.27 4.37Q51.24 4.17 51.14 3.98L51.14 3.98Q51.02 3.85 50.69 3.85L50.69 3.85Q50.41 3.85 50.04 3.92L50.04 3.92Q49.59 3.98 49.41 3.98L49.41 3.98Q49.28 4.23 49.28 4.65L49.28 4.65Q49.28 4.98 49.35 5.40L49.35 5.40Q49.41 5.85 49.41 6.03L49.41 6.03L49.41 11.55L49.41 13.90L49.41 14.49Q49.41 14.80 49.36 15.06L49.36 15.06Q49.34 15.37 49.34 15.53L49.34 15.53Q49.34 15.79 49.41 15.95L49.41 15.95Q49.43 16.02 49.52 16.04Q49.60 16.07 49.66 16.09Q49.73 16.10 49.76 16.10L49.76 16.10Q49.99 16.13 50.13 16.21Q50.27 16.28 50.27 16.52L50.27 16.52Q50.25 16.55 50.16 16.62Q50.08 16.69 49.95 16.75Q49.81 16.81 49.69 16.81L49.69 16.81L47.05 16.81Q46.86 16.81 46.81 16.67Q46.76 16.52 46.76 16.23L46.76 16.23Q46.91 16.23 47.19 16.09L47.19 16.09Q47.47 15.95 47.63 15.95L47.63 15.95L47.64 13.50Q47.64 12.74 47.63 12.43L47.63 12.43Q47.61 12.03 47.61 11.26L47.61 11.26L47.63 8.95L47.63 7.49L47.63 6.90Q47.63 5.81 47.58 5.19Q47.53 4.58 47.33 3.98L47.33 3.98Q47.00 3.88 46.61 3.88L46.61 3.88L46.54 3.88Q45.85 3.88 45.41 4.18Q44.97 4.48 44.97 5.10L44.97 5.10Q44.97 5.25 45.01 5.45L45.01 5.45Q45.00 5.47 44.91 5.52Q44.81 5.57 44.72 5.57L44.72 5.57Q44.56 5.57 44.44 5.45L44.44 5.45Q44.44 5.28 44.38 4.83L44.38 4.83Q44.31 4.20 44.31 4.06L44.31 4.06Q44.31 3.64 44.44 3.39L44.44 3.39Q44.93 3.14 45.37 3.01Q45.82 2.88 46.42 2.88L46.42 2.88Q46.86 2.88 47.87 2.86L47.87 2.86Q48.66 2.81 49.41 2.81L49.41 2.81Q50.44 2.81 51.14 2.91Q51.83 3.01 52.01 3.39L52.01 3.39Q52.19 3.91 52.19 4.40L52.19 4.40Q52.19 4.86 52.01 5.15Q51.83 5.45 51.44 5.45L51.44 5.45ZM58.74 5.08Q58.67 4.98 58.62 4.82L58.62 4.82Q58.60 4.72 58.60 4.51L58.60 4.51Q58.60 4.28 58.58 4.16Q58.55 4.03 58.45 3.95L58.45 3.95Q58.17 3.79 57.88 3.65L57.88 3.65Q57.23 3.65 56.75 3.70Q56.27 3.75 55.89 3.95L55.89 3.95Q55.73 4.09 55.69 4.30Q55.64 4.52 55.64 4.90L55.64 4.90Q55.64 5.56 55.61 6.26L55.61 6.26L55.59 7.07Q55.59 7.28 55.66 7.91L55.66 7.91Q55.72 8.33 55.72 8.50L55.72 8.50Q55.72 8.83 55.59 9.09L55.59 9.09Q55.79 9.25 56.23 9.30Q56.67 9.35 57.30 9.35L57.30 9.35Q57.30 9.00 57.35 8.76Q57.40 8.51 57.60 8.51L57.60 8.51Q57.81 8.51 57.88 8.55Q57.95 8.58 58.17 8.79L58.17 8.79Q58.10 8.93 58.10 9.10L58.10 9.10Q58.09 9.17 58.09 9.34L58.09 9.34Q58.09 9.63 58.13 9.95L58.13 9.95Q58.16 10.35 58.16 10.51L58.16 10.51Q58.16 10.79 58.09 10.94Q58.03 11.09 57.88 11.09L57.88 11.09Q57.83 11.06 57.69 10.98Q57.55 10.89 57.43 10.77Q57.30 10.64 57.30 10.51L57.30 10.51L57.30 10.22L55.89 10.22Q55.73 10.67 55.73 11.41L55.73 11.41Q55.73 11.89 55.78 12.35L55.78 12.35Q55.80 12.91 55.80 13.12L55.80 13.12Q55.80 13.17 55.85 14.64L55.85 14.64Q55.89 15.26 55.89 15.65L55.89 15.65Q56.46 15.85 56.92 15.89Q57.37 15.93 58.17 15.93L58.17 15.93Q58.38 15.83 58.42 15.64L58.42 15.64Q58.46 15.51 58.46 15.23L58.46 15.23Q58.46 14.94 58.51 14.78Q58.56 14.62 58.74 14.52L58.74 14.52Q59.12 14.52 59.22 14.90Q59.32 15.29 59.32 15.93L59.32 15.93Q59.32 16.13 59.19 16.30Q59.05 16.48 58.74 16.80L58.74 16.80L57.30 16.80Q55.87 16.80 54.87 16.75Q53.87 16.70 52.74 16.51L52.74 16.51L52.74 15.93L53.89 15.93Q54.01 15.19 54.01 14.31L54.01 14.31Q54.01 13.82 53.96 12.78L53.96 12.78Q53.89 11.87 53.89 11.09L53.89 11.09L53.89 10.51L53.89 7.64L53.89 6.51L53.89 3.95L52.74 3.95L52.74 3.37Q53.33 3.22 54.50 3.08L54.50 3.08Q55.62 2.94 56.17 2.80L56.17 2.80L59.02 2.80Q59.05 2.83 59.12 2.91Q59.19 2.98 59.26 3.12Q59.32 3.25 59.32 3.37L59.32 3.37Q59.32 3.54 59.39 3.85L59.39 3.85Q59.46 4.34 59.46 4.44L59.46 4.44Q59.46 4.75 59.30 4.91Q59.15 5.08 58.74 5.08L58.74 5.08ZM63.76 3.22Q63.60 3.54 63.36 3.78L63.36 3.78Q63.27 3.88 63.23 3.93Q63.20 3.99 63.20 4.09L63.20 4.09Q63.20 5.40 63.11 6.84Q63.03 8.27 63.01 8.55L63.01 8.55Q62.92 10.05 62.87 11.07Q62.82 12.08 62.82 13.13L62.82 13.13Q62.82 14.45 62.89 15.43L62.89 15.43L62.89 15.48Q62.89 15.65 62.93 15.67Q62.97 15.69 63.20 15.71L63.20 15.71Q63.39 15.72 63.51 15.71Q63.63 15.71 63.76 15.71L63.76 15.71Q63.80 15.71 63.95 15.71Q64.09 15.72 64.33 15.71L64.33 15.71L64.64 15.71L64.64 13.97L64.64 12.81Q64.76 12.68 64.92 12.68L64.92 12.68Q65.03 12.68 65.11 12.73Q65.20 12.78 65.23 12.81L65.23 12.81Q65.58 13.16 65.58 14.01L65.58 14.01Q65.58 14.38 65.53 14.76L65.53 14.76Q65.51 15.23 65.51 15.43L65.51 15.43Q65.51 15.51 65.56 15.74L65.56 15.74Q65.63 16.13 65.63 16.21L65.63 16.21Q65.63 16.46 65.51 16.59L65.51 16.59Q64.86 16.70 64.20 16.72L64.20 16.72Q63.77 16.73 62.93 16.73L62.93 16.73Q62.10 16.73 61.59 16.75Q61.07 16.77 60.58 16.87L60.58 16.87Q60.42 16.73 60.27 16.65L60.27 16.65Q60.12 16.56 60.05 16.49Q59.99 16.42 59.99 16.28L59.99 16.28Q59.99 16.10 60.14 16.05Q60.28 16.00 60.58 16.00L60.58 16.00Q60.77 15.81 60.82 15.58Q60.86 15.36 60.86 14.84L60.86 14.84Q61.05 13.89 61.10 12.69Q61.15 11.49 61.15 9.91L61.15 9.91L61.15 9.60L61.15 7.01Q61.15 6.05 61.10 5.36Q61.05 4.68 60.86 4.09L60.86 4.09Q60.86 3.96 60.80 3.91Q60.75 3.85 60.59 3.75L60.59 3.75Q60.40 3.64 60.27 3.53L60.27 3.53L60.27 2.94L60.58 2.94Q61.03 2.94 61.68 2.87L61.68 2.87Q61.84 2.86 62.24 2.83Q62.64 2.80 62.96 2.80L62.96 2.80Q63.35 2.80 63.53 2.83L63.53 2.83Q63.70 2.84 63.74 2.88Q63.77 2.93 63.76 3.04Q63.76 3.15 63.76 3.22L63.76 3.22ZM70.38 3.22Q70.22 3.54 69.99 3.78L69.99 3.78Q69.89 3.88 69.85 3.93Q69.82 3.99 69.82 4.09L69.82 4.09Q69.82 5.40 69.73 6.84Q69.65 8.27 69.64 8.55L69.64 8.55Q69.54 10.05 69.49 11.07Q69.44 12.08 69.44 13.13L69.44 13.13Q69.44 14.45 69.51 15.43L69.51 15.43L69.51 15.48Q69.51 15.65 69.55 15.67Q69.59 15.69 69.82 15.71L69.82 15.71Q70.01 15.72 70.13 15.71Q70.25 15.71 70.38 15.71L70.38 15.71Q70.42 15.71 70.57 15.71Q70.71 15.72 70.95 15.71L70.95 15.71L71.26 15.71L71.26 13.97L71.26 12.81Q71.39 12.68 71.54 12.68L71.54 12.68Q71.65 12.68 71.74 12.73Q71.82 12.78 71.85 12.81L71.85 12.81Q72.20 13.16 72.20 14.01L72.20 14.01Q72.20 14.38 72.16 14.76L72.16 14.76Q72.13 15.23 72.13 15.43L72.13 15.43Q72.13 15.51 72.18 15.74L72.18 15.74Q72.25 16.13 72.25 16.21L72.25 16.21Q72.25 16.46 72.13 16.59L72.13 16.59Q71.48 16.70 70.83 16.72L70.83 16.72Q70.39 16.73 69.55 16.73L69.55 16.73Q68.73 16.73 68.21 16.75Q67.69 16.77 67.20 16.87L67.20 16.87Q67.05 16.73 66.89 16.65L66.89 16.65Q66.74 16.56 66.67 16.49Q66.61 16.42 66.61 16.28L66.61 16.28Q66.61 16.10 66.76 16.05Q66.91 16.00 67.20 16.00L67.20 16.00Q67.40 15.81 67.44 15.58Q67.48 15.36 67.48 14.84L67.48 14.84Q67.68 13.89 67.73 12.69Q67.77 11.49 67.77 9.91L67.77 9.91L67.77 9.60L67.77 7.01Q67.77 6.05 67.73 5.36Q67.68 4.68 67.48 4.09L67.48 4.09Q67.48 3.96 67.42 3.91Q67.37 3.85 67.21 3.75L67.21 3.75Q67.02 3.64 66.89 3.53L66.89 3.53L66.89 2.94L67.20 2.94Q67.65 2.94 68.31 2.87L68.31 2.87Q68.46 2.86 68.86 2.83Q69.26 2.80 69.58 2.80L69.58 2.80Q69.97 2.80 70.15 2.83L70.15 2.83Q70.32 2.84 70.36 2.88Q70.39 2.93 70.39 3.04Q70.38 3.15 70.38 3.22L70.38 3.22ZM78.25 15.65Q78.25 13.79 78.20 12.54Q78.15 11.30 77.94 10.32L77.94 10.32Q77.66 10.32 77.03 10.19L77.03 10.19Q76.13 10.02 75.61 10.02L75.61 10.02Q75.40 10.22 75.36 10.57Q75.31 10.92 75.31 11.54L75.31 11.54Q75.10 12.32 75.04 13.24Q74.98 14.17 74.98 15.67L74.98 15.67Q75.11 15.76 75.22 15.79L75.22 15.79Q75.31 15.81 75.46 15.81L75.46 15.81Q75.60 15.81 75.70 15.83Q75.80 15.85 75.88 15.93L75.88 15.93Q75.88 16.16 75.87 16.32Q75.85 16.48 75.84 16.52L75.84 16.52Q75.47 16.77 75.10 16.79L75.10 16.79Q75.03 16.80 74.87 16.80L74.87 16.80Q74.61 16.80 74.35 16.76L74.35 16.76Q74.02 16.73 73.85 16.73L73.85 16.73Q73.53 16.73 73.25 16.83L73.25 16.83L72.63 16.24Q73.15 15.67 73.51 15.67L73.51 15.67Q73.72 15.67 73.77 15.52Q73.82 15.37 73.82 15.06L73.82 15.06Q73.99 13.96 74.31 11.42L74.31 11.42Q74.58 9.30 74.69 8.55L74.69 8.55Q74.69 7.94 74.87 7.32Q75.04 6.71 75.31 6.20L75.31 6.20Q75.52 5.39 75.87 4.72Q76.22 4.05 76.76 3.25L76.76 3.25Q76.79 3.22 76.91 3.12Q77.03 3.02 77.21 2.93Q77.39 2.84 77.59 2.84L77.59 2.84Q77.78 2.84 77.94 2.94L77.94 2.94Q78.23 3.08 78.52 3.46Q78.81 3.84 78.99 4.27Q79.17 4.70 79.17 5.01L79.17 5.01Q79.51 5.70 79.62 6.59L79.62 6.59Q79.73 7.57 80.01 10.78L80.01 10.78Q80.15 12.56 80.30 14.17L80.30 14.17L80.30 15.96Q80.30 16.03 80.36 16.12Q80.42 16.21 80.43 16.24L80.43 16.24Q80.58 16.42 80.58 16.55L80.58 16.55Q80.58 16.72 80.30 16.84L80.30 16.84L79.94 16.76Q79.52 16.76 79.10 16.80L79.10 16.80Q78.96 16.81 78.71 16.83Q78.46 16.84 78.25 16.84L78.25 16.84Q78.16 16.86 77.99 16.88Q77.83 16.90 77.73 16.90L77.73 16.90Q77.46 16.90 77.46 16.73L77.46 16.73Q77.46 16.58 77.59 16.32Q77.73 16.06 77.92 15.86Q78.11 15.65 78.25 15.65L78.25 15.65ZM76.76 4.70Q76.54 5.36 76.31 6.13Q76.08 6.90 75.88 7.67L75.88 7.67Q75.88 7.84 75.75 8.34L75.75 8.34Q75.61 8.96 75.61 9.17L75.61 9.17Q76.19 9.34 76.74 9.39Q77.29 9.44 77.94 9.44L77.94 9.44L77.94 7.67Q77.94 7.04 77.78 6.21Q77.62 5.38 77.38 4.70L77.38 4.70Q77.38 4.63 77.32 4.52Q77.27 4.41 77.07 4.41L77.07 4.41L76.76 4.70ZM87.05 9.02Q87.44 9.52 87.65 10.26Q87.86 11.00 87.95 11.78Q88.05 12.56 88.12 13.78L88.12 13.78Q88.20 15.19 88.28 15.82L88.28 15.82Q88.59 15.82 88.73 15.87Q88.87 15.92 88.87 16.11L88.87 16.11Q88.87 16.80 87.86 16.80L87.86 16.80Q87.57 16.80 86.79 16.70L86.79 16.70Q86.60 16.52 86.56 16.30L86.56 16.30L86.56 16.21Q86.56 16.11 86.65 15.72L86.65 15.72Q86.69 15.51 86.74 15.23Q86.79 14.94 86.79 14.63L86.79 14.63Q86.79 14.20 86.72 13.83L86.72 13.83Q86.65 13.38 86.65 12.70L86.65 12.70Q86.62 11.87 86.53 11.36Q86.45 10.85 86.13 10.40L86.13 10.40L85.96 10.15Q85.76 9.83 85.54 9.60L85.54 9.60Q85.54 9.48 85.48 9.41Q85.41 9.34 85.26 9.24L85.26 9.24Q85.06 9.13 84.94 9.02L84.94 9.02Q84.64 9.02 84.50 9.07Q84.35 9.11 84.35 9.30L84.35 9.30Q84.21 10.01 84.21 10.88L84.21 10.88Q84.21 11.48 84.29 12.54L84.29 12.54Q84.35 13.47 84.35 13.80L84.35 13.80Q84.35 14.42 84.40 14.82Q84.45 15.22 84.63 15.62L84.63 15.62Q84.63 15.72 84.71 15.79Q84.78 15.85 84.94 15.92L84.94 15.92Q85.08 15.99 85.16 16.04Q85.23 16.10 85.23 16.20L85.23 16.20Q85.23 16.25 85.23 16.42Q85.23 16.59 85.18 16.66Q85.12 16.73 84.98 16.73L84.98 16.73Q84.73 16.73 84.39 16.69L84.39 16.69Q84.27 16.69 83.99 16.67Q83.71 16.65 83.50 16.65L83.50 16.65Q82.87 16.65 82.54 16.81L82.54 16.81Q82.17 16.81 81.98 16.79Q81.80 16.76 81.65 16.63Q81.49 16.49 81.34 16.20L81.34 16.20Q81.55 16.02 81.75 15.97Q81.94 15.92 82.24 15.92L82.24 15.92L82.24 10.81Q82.24 10.67 82.26 10.48Q82.29 10.29 82.31 10.21L82.31 10.21Q82.38 9.88 82.38 9.62L82.38 9.62Q82.38 9.30 82.24 9.02L82.24 9.02Q82.24 8.82 82.28 8.65L82.28 8.65Q82.33 8.29 82.33 8.23L82.33 8.23Q82.36 7.76 82.36 7.55L82.36 7.55Q82.36 7.11 82.31 6.22L82.31 6.22Q82.29 6.05 82.26 5.54Q82.24 5.03 82.24 4.51L82.24 4.51Q81.76 4.51 81.45 4.40Q81.14 4.30 81.14 4.07L81.14 4.07Q81.14 3.64 81.28 3.45Q81.41 3.26 81.66 3.22Q81.90 3.18 82.45 3.18L82.45 3.18Q82.60 3.18 82.80 3.09L82.80 3.09Q82.96 3.01 83.12 3.01L83.12 3.01Q83.96 2.87 84.74 2.87L84.74 2.87Q85.97 2.87 86.85 3.25Q87.72 3.63 87.93 4.51L87.93 4.51Q88.12 5.24 88.12 5.85L88.12 5.85Q88.12 6.47 87.93 6.90L87.93 6.90Q87.82 7.18 87.56 7.52Q87.30 7.85 87.05 8.11L87.05 8.11L86.74 8.41Q86.74 8.58 86.90 8.71L86.90 8.71Q87.05 8.86 87.05 9.02L87.05 9.02ZM84.07 3.93Q84.07 5.31 84.18 7.63L84.18 7.63Q84.18 7.78 84.42 7.78L84.42 7.78Q84.71 7.78 85.19 7.59Q85.67 7.39 85.85 7.21L85.85 7.21Q85.85 7.04 85.99 6.57L85.99 6.57Q86.10 6.22 86.13 6.02L86.13 6.02Q86.18 5.73 86.18 5.54L86.18 5.54Q86.18 5.40 86.16 5.22Q86.13 5.04 86.13 4.82L86.13 4.82Q86.13 4.56 86.02 4.40Q85.90 4.24 85.75 4.10Q85.60 3.96 85.54 3.91L85.54 3.91L84.07 3.93ZM103.01 15.46Q102.87 15.71 102.65 15.95Q102.42 16.18 102.23 16.31L102.23 16.31Q101.42 16.83 100.51 16.83L100.51 16.83Q99.60 16.83 98.82 16.34Q98.04 15.86 97.66 15.16L97.66 15.16Q97.15 14.18 96.80 13.15L96.80 13.15Q96.61 12.40 96.56 11.64Q96.52 10.88 96.52 9.73L96.52 9.73Q96.52 9.55 96.49 9.21L96.49 9.21Q96.46 8.85 96.46 8.67L96.46 8.67Q96.46 8.34 96.52 8.01L96.52 8.01Q96.53 7.92 96.60 7.55Q96.67 7.17 96.67 6.92L96.67 6.92Q96.70 6.78 96.77 6.38L96.77 6.38Q96.82 6.01 96.89 5.78Q96.95 5.56 97.09 5.43L97.09 5.43Q97.24 5.22 97.55 4.75L97.55 4.75Q97.97 4.10 98.27 3.74Q98.57 3.37 99.03 3.11Q99.48 2.84 100.10 2.84L100.10 2.84Q100.38 2.84 100.53 2.87L100.53 2.87Q101.37 2.87 101.87 3.12Q102.37 3.37 102.80 4.02L102.80 4.02Q103.46 4.45 103.92 5.36Q104.37 6.27 104.47 7.36L104.47 7.36Q104.52 7.94 104.52 8.88L104.52 8.88L104.52 9.49Q104.52 10.92 104.29 11.91L104.29 11.91Q103.87 13.90 103.01 15.46L103.01 15.46ZM101.77 15.26Q101.95 14.80 102.18 14.08Q102.41 13.37 102.52 12.88L102.52 12.88Q102.70 12.31 102.75 11.73Q102.80 11.16 102.80 10.30L102.80 10.30Q102.80 10.01 102.86 9.56L102.86 9.56Q102.86 9.48 102.88 9.26Q102.90 9.04 102.90 8.85L102.90 8.85Q102.90 8.65 102.89 8.39Q102.87 8.13 102.86 7.99L102.86 7.99Q102.80 7.43 102.80 7.15L102.80 7.15Q102.66 6.87 102.52 6.31L102.52 6.31Q102.38 5.73 102.23 5.43L102.23 5.43L102.07 5.10Q101.82 4.55 101.63 4.24Q101.43 3.93 101.12 3.78L101.12 3.78Q100.84 3.78 100.56 3.75L100.56 3.75Q100.25 3.72 99.96 3.72L99.96 3.72Q99.54 4.14 99.29 4.60Q99.04 5.05 98.81 5.71L98.81 5.71Q98.62 6.09 98.57 6.48Q98.52 6.86 98.52 7.43L98.52 7.43Q98.41 8.33 98.41 9.42L98.41 9.42Q98.41 11.40 98.81 13.72L98.81 13.72Q98.91 13.92 98.97 14.14Q99.04 14.36 99.06 14.43L99.06 14.43Q99.15 14.73 99.21 14.89Q99.27 15.05 99.39 15.16L99.39 15.16Q99.50 15.16 99.53 15.20Q99.57 15.25 99.60 15.39Q99.62 15.53 99.71 15.61L99.71 15.61Q99.93 15.83 100.44 15.83L100.44 15.83Q100.87 15.83 101.27 15.67Q101.67 15.51 101.77 15.26L101.77 15.26ZM113.53 3.00Q113.53 3.12 113.46 3.25Q113.40 3.37 113.34 3.45Q113.27 3.53 113.25 3.56L113.25 3.56L112.67 3.56Q112.55 3.68 112.55 3.85L112.55 3.85Q112.55 3.92 112.60 4.14L112.60 4.14Q112.67 4.52 112.67 4.69L112.67 4.69L112.67 7.87Q112.67 12.96 112.90 16.17L112.90 16.17Q112.91 16.51 112.73 16.66Q112.55 16.81 112.28 16.81L112.28 16.81Q112.08 16.81 111.90 16.74Q111.71 16.67 111.61 16.58L111.61 16.58Q111.50 16.24 111.35 15.80Q111.20 15.36 111.02 14.80L111.02 14.80Q110.00 11.80 109.58 10.32L109.58 10.32Q109.45 9.84 109.20 9.28Q108.95 8.71 108.92 8.65L108.92 8.65Q108.84 8.47 108.79 8.35Q108.75 8.23 108.74 8.20L108.74 8.20Q108.63 7.95 108.57 7.56L108.57 7.56Q108.50 7.20 108.42 7.01Q108.33 6.82 108.09 6.69L108.09 6.69L108.09 8.65L108.09 10.89L108.09 13.15L108.09 13.99L108.09 15.39Q108.28 15.57 108.47 15.62Q108.65 15.67 108.92 15.67L108.92 15.67Q108.92 15.81 108.95 16.09L108.95 16.09Q108.98 16.31 108.98 16.39L108.98 16.39Q108.98 16.59 108.90 16.69Q108.82 16.79 108.61 16.79L108.61 16.79L107.98 16.80L106.11 16.84Q105.99 16.84 105.96 16.75Q105.92 16.66 105.92 16.48L105.92 16.48Q105.92 16.28 105.94 16.17L105.94 16.17L105.95 15.75Q105.98 15.76 106.07 15.79Q106.16 15.82 106.25 15.82L106.25 15.82Q106.41 15.82 106.41 15.67L106.41 15.67Q106.57 15.34 106.57 14.81L106.57 14.81Q106.57 14.59 106.54 14.20L106.54 14.20Q106.51 13.83 106.51 13.71L106.51 13.71Q106.51 13.22 106.46 12.21L106.46 12.21Q106.41 11.59 106.41 11.19L106.41 11.19L106.40 9.21Q106.40 8.89 106.34 8.36L106.34 8.36Q106.29 7.83 106.29 7.56L106.29 7.56Q106.29 7.48 106.22 7.13L106.22 7.13Q106.13 6.82 106.13 6.69L106.13 6.69L106.13 6.41L106.13 5.56Q106.13 5.35 106.12 5.26L106.12 5.26L106.11 4.84Q106.11 4.62 105.97 4.28L105.97 4.28Q105.85 4.00 105.85 3.88L105.85 3.88Q105.45 3.88 105.22 3.71Q105 3.54 105 3.32L105 3.32Q105 3.11 105.14 2.95Q105.28 2.80 105.49 2.80L105.49 2.80Q105.60 2.80 105.67 2.79Q105.73 2.79 105.78 2.79L105.78 2.79Q105.91 2.76 106.13 2.74L106.13 2.74Q106.23 2.73 106.36 2.75Q106.48 2.77 106.55 2.77L106.55 2.77Q106.83 2.80 107.04 2.80L107.04 2.80Q107.21 2.80 107.32 2.91Q107.44 3.02 107.48 3.15Q107.53 3.28 107.53 3.32L107.53 3.32Q108.08 4.12 108.47 5.01Q108.86 5.89 109.40 7.28L109.40 7.28Q109.86 8.50 110.05 8.93L110.05 8.93Q110.24 9.51 110.43 9.93Q110.63 10.36 110.91 10.89L110.91 10.89Q110.91 11.09 110.96 11.26Q111.01 11.44 111.15 11.76L111.15 11.76Q111.19 11.84 111.29 12.21L111.29 12.21Q111.40 12.56 111.54 12.94Q111.68 13.33 111.80 13.50L111.80 13.50Q111.83 13.54 111.84 13.49Q111.85 13.44 111.85 13.34L111.85 13.34Q111.85 13.13 111.79 12.40L111.79 12.40Q111.73 11.68 111.73 11.47L111.73 11.47Q111.73 10.84 111.79 9.27L111.79 9.27Q111.85 7.59 111.85 6.65L111.85 6.65L111.85 6.37Q111.85 5.94 111.71 5.24L111.71 5.24Q111.57 4.54 111.57 4.12L111.57 4.12Q111.30 3.85 111.10 3.70Q110.89 3.56 110.71 3.56L110.71 3.56Q110.63 3.47 110.52 3.40Q110.42 3.32 110.37 3.25Q110.32 3.18 110.32 3.08L110.32 3.08Q110.32 2.93 110.43 2.70L110.43 2.70Q110.56 2.70 110.64 2.74Q110.71 2.79 110.94 2.79L110.94 2.79Q111.20 2.79 111.36 2.75Q111.52 2.72 111.57 2.70L111.57 2.70Q111.73 2.74 111.93 2.74L111.93 2.74Q112.07 2.74 112.38 2.72L112.38 2.72Q112.81 2.69 112.99 2.70L112.99 2.70Q113.40 2.73 113.53 3.00L113.53 3.00ZM124.01 3.78Q123.96 3.79 123.96 3.92L123.96 3.92Q123.96 4.06 124.10 4.68L124.10 4.68Q124.29 5.43 124.29 5.77L124.29 5.77Q124.29 6.58 124.40 7.41Q124.50 8.23 124.74 9.66L124.74 9.66L124.84 10.29Q124.84 10.43 124.86 10.54Q124.88 10.65 125.01 10.78L125.01 10.78Q125.15 10.92 125.29 10.59Q125.43 10.26 125.43 10.00L125.43 10.00Q126.08 8.68 126.50 7.38Q126.91 6.08 127.09 4.62L127.09 4.62Q127.08 4.61 127.00 4.54Q126.92 4.47 126.81 4.41Q126.69 4.35 126.56 4.35L126.56 4.35L126.27 4.35Q126.24 4.33 126.17 4.24Q126.10 4.16 126.04 4.03Q125.97 3.91 125.97 3.78L125.97 3.78Q125.97 3.65 126.28 3.65L126.28 3.65Q126.46 3.65 126.97 3.71L126.97 3.71Q127.39 3.78 127.68 3.78L127.68 3.78Q127.93 3.78 128.18 3.71L128.18 3.71Q128.46 3.65 128.59 3.65L128.59 3.65Q128.84 3.65 129.09 3.78L129.09 3.78Q129.21 3.88 129.21 4.05L129.21 4.05Q129.21 4.27 129.01 4.45Q128.81 4.62 128.52 4.62L128.52 4.62L129.39 9.73Q129.65 9.45 129.78 9.16Q129.91 8.86 130.06 8.33L130.06 8.33Q130.19 7.88 130.26 7.70L130.26 7.70Q130.37 7.49 130.45 7.13Q130.54 6.78 130.59 6.44L130.59 6.44Q130.69 5.77 130.82 5.49L130.82 5.49Q130.97 5.14 131.05 4.68Q131.12 4.21 131.12 3.93L131.12 3.93Q131.10 3.93 131.02 3.95Q130.94 3.96 130.84 3.96L130.84 3.96Q130.51 3.96 130.51 3.78L130.51 3.78Q130.51 3.63 130.47 3.46L130.47 3.46Q130.45 3.40 130.44 3.32Q130.42 3.23 130.42 3.14L130.42 3.14Q130.42 2.94 130.55 2.93L130.55 2.93Q131.18 2.81 131.87 2.81L131.87 2.81Q132.82 2.81 133.32 3.04L133.32 3.04Q133.32 3.28 133.34 3.39L133.34 3.39L133.35 3.78Q133.28 3.85 133.10 3.91L133.10 3.91Q133 3.92 132.78 3.92L132.78 3.92Q132.57 3.92 132.43 3.94Q132.30 3.96 132.20 4.06L132.20 4.06Q132.10 4.17 132.05 4.36Q131.99 4.55 131.96 4.75Q131.92 4.94 131.91 5.00L131.91 5.00Q131.84 5.42 131.77 5.60L131.77 5.60Q131.45 6.37 131.27 7.10Q131.10 7.83 130.90 8.96L130.90 8.96L130.82 9.45L130.35 12.59Q130.27 13.27 130.03 14.90L130.03 14.90Q130.00 15.04 129.98 15.40L129.98 15.40Q129.92 15.96 129.85 16.32Q129.78 16.67 129.65 16.81L129.65 16.81Q129.39 16.81 129.19 16.54Q129.00 16.27 128.89 15.92Q128.79 15.57 128.79 15.39L128.79 15.39Q128.58 13.78 128.13 12.08Q127.68 10.39 127.09 8.88L127.09 8.88Q126.64 9.79 126.33 10.82Q126.01 11.84 125.64 13.33L125.64 13.33Q125.31 14.62 125.08 15.39Q124.85 16.16 124.56 16.81L124.56 16.81Q124.17 16.81 123.97 16.51Q123.77 16.21 123.69 15.68L123.69 15.68Q123.52 14.69 123.38 13.48Q123.24 12.26 123.20 11.96L123.20 11.96Q122.82 8.83 122.58 7.45L122.58 7.45Q122.58 6.50 122.44 5.68Q122.29 4.86 122.01 3.78L122.01 3.78Q121.76 3.89 121.62 3.89L121.62 3.89Q121.41 3.89 121.29 3.71Q121.17 3.53 121.17 3.22L121.17 3.22Q121.17 3.15 121.22 3.04Q121.27 2.93 121.45 2.93L121.45 2.93Q121.95 2.93 122.54 2.86L122.54 2.86Q123.19 2.80 123.49 2.80L123.49 2.80Q124.07 2.80 124.56 2.93L124.56 2.93Q124.57 2.93 124.64 2.94Q124.71 2.95 124.78 3.02Q124.84 3.09 124.84 3.22L124.84 3.22Q124.84 3.32 124.75 3.37Q124.67 3.43 124.47 3.51L124.47 3.51Q124.17 3.63 124.01 3.78L124.01 3.78ZM139.80 5.08Q139.73 4.98 139.68 4.82L139.68 4.82Q139.66 4.72 139.66 4.51L139.66 4.51Q139.66 4.28 139.64 4.16Q139.61 4.03 139.51 3.95L139.51 3.95Q139.23 3.79 138.94 3.65L138.94 3.65Q138.29 3.65 137.81 3.70Q137.33 3.75 136.95 3.95L136.95 3.95Q136.79 4.09 136.75 4.30Q136.70 4.52 136.70 4.90L136.70 4.90Q136.70 5.56 136.67 6.26L136.67 6.26L136.65 7.07Q136.65 7.28 136.72 7.91L136.72 7.91Q136.78 8.33 136.78 8.50L136.78 8.50Q136.78 8.83 136.65 9.09L136.65 9.09Q136.85 9.25 137.29 9.30Q137.73 9.35 138.36 9.35L138.36 9.35Q138.36 9.00 138.41 8.76Q138.46 8.51 138.66 8.51L138.66 8.51Q138.87 8.51 138.94 8.55Q139.01 8.58 139.23 8.79L139.23 8.79Q139.16 8.93 139.16 9.10L139.16 9.10Q139.15 9.17 139.15 9.34L139.15 9.34Q139.15 9.63 139.19 9.95L139.19 9.95Q139.22 10.35 139.22 10.51L139.22 10.51Q139.22 10.79 139.15 10.94Q139.09 11.09 138.94 11.09L138.94 11.09Q138.89 11.06 138.75 10.98Q138.61 10.89 138.49 10.77Q138.36 10.64 138.36 10.51L138.36 10.51L138.36 10.22L136.95 10.22Q136.79 10.67 136.79 11.41L136.79 11.41Q136.79 11.89 136.84 12.35L136.84 12.35Q136.86 12.91 136.86 13.12L136.86 13.12Q136.86 13.17 136.91 14.64L136.91 14.64Q136.95 15.26 136.95 15.65L136.95 15.65Q137.52 15.85 137.98 15.89Q138.43 15.93 139.23 15.93L139.23 15.93Q139.44 15.83 139.48 15.64L139.48 15.64Q139.52 15.51 139.52 15.23L139.52 15.23Q139.52 14.94 139.57 14.78Q139.62 14.62 139.80 14.52L139.80 14.52Q140.18 14.52 140.28 14.90Q140.38 15.29 140.38 15.93L140.38 15.93Q140.38 16.13 140.25 16.30Q140.11 16.48 139.80 16.80L139.80 16.80L138.36 16.80Q136.93 16.80 135.93 16.75Q134.93 16.70 133.80 16.51L133.80 16.51L133.80 15.93L134.95 15.93Q135.07 15.19 135.07 14.31L135.07 14.31Q135.07 13.82 135.02 12.78L135.02 12.78Q134.95 11.87 134.95 11.09L134.95 11.09L134.95 10.51L134.95 7.64L134.95 6.51L134.95 3.95L133.80 3.95L133.80 3.37Q134.39 3.22 135.56 3.08L135.56 3.08Q136.68 2.94 137.23 2.80L137.23 2.80L140.08 2.80Q140.11 2.83 140.18 2.91Q140.25 2.98 140.32 3.12Q140.38 3.25 140.38 3.37L140.38 3.37Q140.38 3.54 140.45 3.85L140.45 3.85Q140.52 4.34 140.52 4.44L140.52 4.44Q140.52 4.75 140.36 4.91Q140.21 5.08 139.80 5.08L139.80 5.08ZM145.64 7.71Q145.64 7.85 145.73 7.92Q145.81 7.98 146.06 8.09L146.06 8.09Q146.23 8.15 146.50 8.29L146.50 8.29Q146.97 8.76 147.30 9.59Q147.63 10.42 147.63 11.42L147.63 11.42Q147.69 11.77 147.69 12.24L147.69 12.24Q147.69 13.58 147.12 14.80Q146.55 16.02 145.64 16.58L145.64 16.58Q145.25 16.77 144.84 16.81Q144.42 16.86 143.64 16.86L143.64 16.86Q143.35 16.86 142.79 16.72L142.79 16.72Q142.20 16.58 141.92 16.58L141.92 16.58Q141.57 16.58 141.41 16.55Q141.25 16.52 141.16 16.40Q141.06 16.28 141.06 16.00L141.06 16.00L141.06 15.71L141.92 15.71Q142.00 15.36 142.06 14.59L142.06 14.59Q142.07 14.20 142.07 13.38L142.07 13.38Q142.07 12.56 142.09 11.99Q142.11 11.42 142.21 10.85L142.21 10.85L142.21 10.29L142.21 8.86L142.21 5.99L142.21 3.71Q141.64 3.71 141.35 3.61Q141.06 3.51 141.06 3.14L141.06 3.14Q141.25 2.95 141.58 2.91Q141.92 2.86 142.49 2.86L142.49 2.86Q143.92 2.86 144.73 2.95Q145.54 3.05 145.92 3.43L145.92 3.43Q145.98 3.54 146.03 3.63Q146.08 3.71 146.10 3.78L146.10 3.78Q146.31 4.14 146.41 4.42Q146.50 4.70 146.50 5.14L146.50 5.14Q146.57 5.33 146.57 5.63L146.57 5.63Q146.57 6.16 146.29 6.74Q146.02 7.32 145.64 7.71L145.64 7.71ZM143.92 3.71Q143.72 3.91 143.68 4.13Q143.64 4.35 143.64 4.86L143.64 4.86Q143.64 5.64 143.68 6.06Q143.72 6.47 143.92 6.86L143.92 6.86Q143.99 6.93 144.07 6.93L144.07 6.93Q144.19 6.93 144.30 6.83Q144.41 6.72 144.56 6.52L144.56 6.52L144.77 6.29Q144.97 5.73 145.08 5.31Q145.18 4.90 145.18 4.56L145.18 4.56Q145.18 4.23 145.07 4.00L145.07 4.00Q144.87 3.81 144.57 3.76Q144.27 3.71 143.92 3.71L143.92 3.71ZM145.07 15.43L145.64 14.85Q145.82 14.67 145.87 14.37Q145.92 14.07 145.92 13.72L145.92 13.72Q146.13 13.50 146.17 13.43Q146.20 13.36 146.20 13.15L146.20 13.15Q146.33 12.89 146.33 12.42L146.33 12.42Q146.33 12.22 146.26 11.49L146.26 11.49Q146.20 10.99 146.20 10.85L146.20 10.85L146.22 10.37Q146.22 10.21 146.17 10.05Q146.13 9.90 146.01 9.65L146.01 9.65Q146.01 9.65 146.01 9.63Q146.02 9.60 146.02 9.58L146.02 9.58L145.99 9.37Q145.98 9.32 145.92 9.18Q145.85 9.04 145.77 8.85L145.77 8.85Q145.35 8.43 144.86 8.21Q144.37 7.99 143.92 7.99L143.92 7.99Q143.74 8.19 143.69 8.49Q143.64 8.79 143.64 9.14L143.64 9.14L143.64 13.72L143.64 15.71Q144.20 15.71 144.54 15.66Q144.87 15.61 145.07 15.43L145.07 15.43Z"></path></g><defs data-v-423bf9ae=""><linearGradient data-v-423bf9ae="" gradientTransform="rotate(25)" id="7a0ef2e9-d12c-4be7-bc4c-96279a67309a" x1="0%" y1="0%" x2="100%" y2="0%"><stop data-v-423bf9ae="" offset="0%" style="stop-color: rgb(0, 10, 104); stop-opacity: 1;"></stop><stop data-v-423bf9ae="" offset="100%" style="stop-color: rgb(0, 196, 238); stop-opacity: 1;"></stop></linearGradient></defs><g data-v-423bf9ae="" id="34d53bbf-56f9-45d3-a0ef-da19cc934402" transform="matrix(1.029591793484158,0,0,1.029591793484158,-3.401424665193396,-2.8112524046992178)" stroke="none" fill="url(#7a0ef2e9-d12c-4be7-bc4c-96279a67309a)"><path d="M82.81 38A14 14 0 0072 33.91l-12.55.86c-.79-1.64-1.68-3.27-2.65-4.86A54.56 54.56 0 009.92 3.67H6.1a2 2 0 00-2 2v3.82a55.21 55.21 0 0027 47.3c1.12.66 2.21 1.25 3.3 1.8l-1 13.69a14 14 0 004.06 10.91L50 95.75a2 2 0 003.41-1.35L54 76.16A10 10 0 0156.45 70a23.27 23.27 0 0021.32 13.91h2.08a2 2 0 002-2v-2.08a23.35 23.35 0 00-14-21.33L69 57.34a10 10 0 016.78-2.92L94 53.89a2 2 0 001.36-3.41zm-4.95 41.83v.08h-.08a19.27 19.27 0 01-18.26-13.06l5.27-5.27a19.33 19.33 0 0113.07 18.25zM75.7 50.42a14 14 0 00-9.49 4.09L54.14 66.58A14 14 0 0050 76l-.44 13.62-9.3-9.3a10 10 0 01-2.9-7.79l1.08-15a2 2 0 00-1.15-2c-1.4-.65-2.78-1.38-4.21-2.22A51.19 51.19 0 018.1 9.49V7.67h1.82A50.59 50.59 0 0153.34 32a51.06 51.06 0 013 5.68 2 2 0 002 1.18l13.92-1A10 10 0 0180 40.8l9.21 9.2z"></path><path d="M25.77 25.36a9.33 9.33 0 1013.2 0 9.27 9.27 0 00-13.2 0zm10.37 10.37A5.33 5.33 0 1137.7 32a5.34 5.34 0 01-1.56 3.73z"></path></g><!----><g data-v-423bf9ae="" id="17232438-a5c2-4358-943e-87d52cb2fe57" fill="#000000" transform="matrix(1.979561454036296,0,0,1.979561454036296,113.3328635883243,53.4674484234324)"><path d="M0.62 8.90L0.62 8.90Q0.62 7.38 1.20 6.16Q1.79 4.94 3.02 4.19Q4.24 3.44 5.92 3.44L5.92 3.44Q6.78 3.44 7.64 3.70Q8.51 3.95 9.03 4.20L9.03 4.20L9.55 4.47Q9.59 4.47 9.69 4.40Q9.79 4.33 9.84 4.33L9.84 4.33Q9.91 4.33 9.98 4.38Q10.05 4.44 10.05 4.55L10.05 4.55Q10.07 4.96 10.12 5.41Q10.16 5.87 10.21 6.16Q10.25 6.45 10.25 6.51L10.25 6.51Q10.25 6.76 10.08 6.76L10.08 6.76Q9.95 6.76 9.84 6.57L9.84 6.57Q8.48 4.02 5.92 4.02L5.92 4.02Q4.17 4.02 3.05 5.14Q1.93 6.26 1.93 8.06L1.93 8.06Q1.93 9.06 2.19 9.93Q2.45 10.79 2.98 11.51Q3.50 12.24 4.42 12.66Q5.35 13.08 6.58 13.08L6.58 13.08Q8.60 13.08 9.97 10.98L9.97 10.98Q10.02 10.88 10.18 10.88L10.18 10.88Q10.30 10.88 10.30 11.07L10.30 11.07Q10.30 11.23 10.26 11.49Q10.21 11.75 10.14 12.06Q10.07 12.38 10.05 12.45L10.05 12.45Q10.02 12.60 9.83 12.70L9.83 12.70Q9.07 13.06 8.64 13.24Q8.22 13.43 7.56 13.57Q6.90 13.72 6.22 13.72L6.22 13.72Q5.00 13.72 4.02 13.43Q3.04 13.13 2.42 12.66Q1.79 12.18 1.37 11.54Q0.95 10.91 0.78 10.25Q0.62 9.60 0.62 8.90ZM18.91 8.69L18.91 8.69Q18.91 6.34 20.33 4.84Q21.74 3.33 24.33 3.33L24.33 3.33Q25.54 3.33 26.50 3.68Q27.47 4.03 28.03 4.54Q28.59 5.05 28.97 5.71Q29.34 6.37 29.48 6.92Q29.62 7.48 29.62 7.95L29.62 7.95Q29.62 9.86 28.88 11.16Q28.14 12.47 26.93 13.07Q25.72 13.66 24.14 13.66L24.14 13.66Q22.47 13.66 21.26 12.94Q20.05 12.21 19.48 11.10Q18.91 10.00 18.91 8.69ZM20.15 7.98L20.15 7.98Q20.15 8.54 20.30 9.19Q20.45 9.84 20.80 10.54Q21.15 11.23 21.65 11.78Q22.15 12.33 22.91 12.69Q23.67 13.05 24.58 13.05L24.58 13.05Q25.06 13.05 25.59 12.90Q26.11 12.75 26.63 12.45Q27.15 12.14 27.55 11.70Q27.96 11.26 28.22 10.62Q28.48 9.98 28.48 9.24L28.48 9.24Q28.48 6.71 27.15 5.30Q25.82 3.89 23.86 3.89L23.86 3.89Q22.32 3.89 21.23 4.93Q20.15 5.96 20.15 7.98ZM37.31 3.77L37.31 3.77Q37.31 3.68 37.41 3.60Q37.51 3.53 37.66 3.53L37.66 3.53Q37.74 3.53 37.94 3.54Q38.14 3.54 38.19 3.54L38.19 3.54Q38.40 3.54 38.58 3.53Q38.77 3.51 38.88 3.51L38.88 3.51Q39.00 3.51 39.17 3.59Q39.34 3.67 39.37 3.75L39.37 3.75Q39.40 3.79 39.52 3.94Q39.65 4.09 39.86 4.33Q40.07 4.56 40.24 4.79L40.24 4.79Q42.14 7.27 45.33 10.77L45.33 10.77Q45.42 10.86 45.54 10.99Q45.65 11.12 45.70 11.18Q45.75 11.24 45.81 11.30Q45.86 11.35 45.90 11.38Q45.93 11.40 45.96 11.40L45.96 11.40Q46.10 11.40 46.10 10.53L46.10 10.53L46.10 8.89Q46.10 7.95 46.09 7.31Q46.09 6.66 46.08 6.38Q46.07 6.09 46.07 6.02L46.07 6.02L46.07 5.92Q46.07 5.45 46.01 5.11Q45.95 4.77 45.86 4.59Q45.78 4.41 45.62 4.28Q45.46 4.16 45.35 4.12Q45.23 4.09 45.02 4.05Q44.81 4.00 44.73 3.98L44.73 3.98Q44.45 3.89 44.45 3.74L44.45 3.74Q44.45 3.53 44.72 3.53L44.72 3.53Q44.80 3.53 45.39 3.54Q45.98 3.54 46.05 3.54L46.05 3.54Q46.38 3.54 46.80 3.53Q47.21 3.51 47.31 3.51L47.31 3.51Q47.54 3.51 47.64 3.56Q47.73 3.61 47.73 3.75L47.73 3.75Q47.73 3.81 47.65 3.86Q47.57 3.91 47.49 3.94Q47.40 3.98 47.32 4.00L47.32 4.00L47.24 4.03Q46.77 4.28 46.77 5.61L46.77 5.61L46.77 6.15Q46.77 7.21 46.70 9.83Q46.62 12.46 46.62 13.08L46.62 13.08L46.62 13.36Q46.62 13.68 46.42 13.68L46.42 13.68Q46.30 13.68 46.20 13.58L46.20 13.58Q41.55 8.19 40.65 7.17Q39.75 6.16 39.65 6.16L39.65 6.16Q39.51 6.16 39.51 7.11L39.51 7.11Q39.51 8.44 39.45 9.97Q39.40 11.51 39.40 11.65L39.40 11.65Q39.40 12.28 39.61 12.61Q39.83 12.94 40.08 12.98Q40.33 13.02 40.55 13.07Q40.77 13.12 40.77 13.26L40.77 13.26Q40.77 13.41 40.72 13.45Q40.67 13.50 40.54 13.50L40.54 13.50Q40.45 13.50 40.10 13.48Q39.76 13.47 39.05 13.47L39.05 13.47Q38.92 13.47 38.53 13.48Q38.14 13.50 37.86 13.50L37.86 13.50Q37.55 13.50 37.55 13.27L37.55 13.27Q37.55 13.15 37.73 13.11Q37.91 13.08 38.18 12.89Q38.44 12.71 38.58 12.21L38.58 12.21Q38.67 11.89 38.79 9.60Q38.92 7.32 38.92 6.45L38.92 6.45Q38.92 5.25 38.58 4.65Q38.25 4.06 37.49 3.98L37.49 3.98Q37.31 3.96 37.31 3.77ZM55.48 5.32L55.48 5.32Q55.48 4.76 55.62 3.88L55.62 3.88Q55.62 3.85 55.63 3.78Q55.64 3.71 55.64 3.69Q55.65 3.67 55.66 3.62Q55.66 3.57 55.68 3.55Q55.69 3.53 55.71 3.49Q55.73 3.46 55.76 3.44Q55.79 3.43 55.83 3.42Q55.87 3.40 55.93 3.39Q55.99 3.39 56.06 3.39L56.06 3.39Q56.28 3.39 57.24 3.44Q58.20 3.50 60.00 3.50L60.00 3.50Q63.08 3.50 64.32 3.43L64.32 3.43Q64.33 3.43 64.36 3.42Q64.40 3.42 64.41 3.42L64.41 3.42Q64.57 3.42 64.62 3.50Q64.68 3.58 64.68 3.65L64.68 3.65Q64.68 3.75 64.72 4.24Q64.76 4.73 64.76 4.79L64.76 4.79Q64.76 5.14 64.72 5.23Q64.68 5.32 64.54 5.32L64.54 5.32Q64.43 5.32 64.39 5.15L64.39 5.15Q64.27 4.75 64.19 4.60Q64.11 4.45 63.83 4.34Q63.55 4.23 62.97 4.23L62.97 4.23L61.15 4.23Q60.82 4.23 60.74 4.36Q60.66 4.49 60.66 5.12L60.66 5.12L60.66 5.81Q60.66 7.69 60.64 9.11Q60.62 10.54 60.62 10.93L60.62 10.93Q60.62 11.13 60.61 11.43Q60.61 11.73 60.61 11.84L60.61 11.84Q60.61 12.45 60.80 12.64L60.80 12.64Q60.98 12.81 61.21 12.90Q61.43 12.99 61.59 13.01Q61.75 13.02 61.87 13.08Q61.98 13.13 61.98 13.26L61.98 13.26Q61.98 13.41 61.91 13.45Q61.84 13.50 61.64 13.50L61.64 13.50Q61.47 13.50 60.90 13.44Q60.33 13.38 60.09 13.38L60.09 13.38Q59.92 13.38 59.41 13.43Q58.90 13.48 58.66 13.48L58.66 13.48Q58.14 13.48 58.14 13.26L58.14 13.26Q58.14 13.12 58.23 13.07Q58.31 13.02 58.55 12.98Q58.80 12.95 58.87 12.94L58.87 12.94Q59.35 12.82 59.40 12.38L59.40 12.38Q59.54 11.14 59.54 7.08L59.54 7.08L59.53 4.58Q59.53 4.31 59.37 4.25Q59.22 4.19 58.46 4.19L58.46 4.19Q57.48 4.19 56.99 4.24Q56.49 4.30 56.41 4.35Q56.32 4.40 56.21 4.54L56.21 4.54Q56.08 4.70 56.01 4.91Q55.93 5.11 55.91 5.24Q55.89 5.38 55.82 5.47Q55.76 5.56 55.64 5.56L55.64 5.56Q55.48 5.56 55.48 5.32ZM72.32 3.65L72.32 3.65Q72.32 3.46 72.72 3.46L72.72 3.46Q72.77 3.46 72.90 3.47Q73.02 3.49 73.09 3.49L73.09 3.49Q73.14 3.49 74.41 3.52Q75.68 3.56 76.51 3.56L76.51 3.56Q76.80 3.56 77.96 3.53Q79.11 3.50 79.31 3.50L79.31 3.50Q79.58 3.50 79.58 3.82L79.58 3.82Q79.58 3.91 79.49 4.38Q79.41 4.84 79.41 5.25L79.41 5.25Q79.41 5.38 79.34 5.47Q79.27 5.56 79.18 5.56L79.18 5.56Q78.97 5.56 78.97 5.26L78.97 5.26Q78.97 4.89 78.74 4.58Q78.50 4.27 78.15 4.26L78.15 4.26Q76.89 4.16 76.22 4.16L76.22 4.16L75.85 4.16Q75.12 4.16 75.00 4.26Q74.89 4.37 74.86 5.01L74.86 5.01Q74.80 6.02 74.80 7.35L74.80 7.35Q74.80 8.05 75.07 8.06L75.07 8.06L75.42 8.06L76.01 8.06L76.44 8.06Q77.28 8.06 77.56 8.01Q77.84 7.95 78.06 7.80L78.06 7.80Q78.33 7.62 78.39 7.28L78.39 7.28Q78.43 7.04 78.58 7.04L78.58 7.04Q78.71 7.04 78.74 7.08Q78.76 7.13 78.76 7.27L78.76 7.27Q78.76 7.36 78.71 7.91Q78.65 8.46 78.65 8.74L78.65 8.74Q78.65 9.00 78.67 9.24Q78.69 9.48 78.69 9.59L78.69 9.59Q78.69 9.94 78.60 9.94L78.60 9.94Q78.39 9.94 78.29 9.60L78.29 9.60Q78.09 9.02 77.94 8.92L77.94 8.92Q77.64 8.72 76.59 8.72L76.59 8.72Q76.17 8.72 75.91 8.72Q75.66 8.72 75.58 8.71Q75.50 8.71 75.45 8.71Q75.40 8.71 75.36 8.71L75.36 8.71Q74.79 8.71 74.79 8.97L74.79 8.97Q74.79 9.38 74.77 9.99Q74.76 10.60 74.76 10.99L74.76 10.99L74.76 11.55Q74.76 12.56 75.10 12.66L75.10 12.66Q75.45 12.77 75.70 12.77L75.70 12.77Q76.75 12.77 77.54 12.67Q78.33 12.57 78.73 12.42Q79.13 12.28 79.39 12.10Q79.66 11.93 79.74 11.78Q79.81 11.63 79.89 11.54Q79.97 11.44 80.05 11.44L80.05 11.44Q80.22 11.44 80.22 11.68L80.22 11.68Q80.22 12.28 79.62 12.89Q79.02 13.51 78.57 13.51L78.57 13.51Q77.56 13.51 76.29 13.44Q75.03 13.37 74.72 13.37L74.72 13.37Q74.33 13.37 73.74 13.43Q73.15 13.50 72.81 13.50L72.81 13.50Q72.52 13.50 72.52 13.36L72.52 13.36Q72.52 13.23 72.52 13.19Q72.52 13.15 72.56 13.12Q72.60 13.09 72.65 13.08Q72.70 13.08 72.83 13.03Q72.97 12.99 73.12 12.92L73.12 12.92Q73.46 12.75 73.56 12.26Q73.67 11.77 73.67 10.21L73.67 10.21L73.67 8.47Q73.67 8.09 73.69 7.29Q73.71 6.50 73.71 6.05L73.71 6.05Q73.71 5.67 73.68 4.77L73.68 4.77Q73.67 4.37 73.33 4.14Q73.00 3.92 72.55 3.91L72.55 3.91Q72.32 3.91 72.32 3.65ZM87.78 3.77L87.78 3.77Q87.78 3.68 87.88 3.60Q87.98 3.53 88.13 3.53L88.13 3.53Q88.21 3.53 88.41 3.54Q88.61 3.54 88.66 3.54L88.66 3.54Q88.87 3.54 89.05 3.53Q89.24 3.51 89.35 3.51L89.35 3.51Q89.47 3.51 89.64 3.59Q89.81 3.67 89.84 3.75L89.84 3.75Q89.87 3.79 89.99 3.94Q90.12 4.09 90.33 4.33Q90.54 4.56 90.71 4.79L90.71 4.79Q92.61 7.27 95.80 10.77L95.80 10.77Q95.89 10.86 96.00 10.99Q96.12 11.12 96.17 11.18Q96.22 11.24 96.28 11.30Q96.33 11.35 96.37 11.38Q96.40 11.40 96.43 11.40L96.43 11.40Q96.57 11.40 96.57 10.53L96.57 10.53L96.57 8.89Q96.57 7.95 96.56 7.31Q96.56 6.66 96.55 6.38Q96.54 6.09 96.54 6.02L96.54 6.02L96.54 5.92Q96.54 5.45 96.48 5.11Q96.42 4.77 96.33 4.59Q96.25 4.41 96.09 4.28Q95.93 4.16 95.82 4.12Q95.70 4.09 95.49 4.05Q95.28 4.00 95.20 3.98L95.20 3.98Q94.92 3.89 94.92 3.74L94.92 3.74Q94.92 3.53 95.19 3.53L95.19 3.53Q95.27 3.53 95.86 3.54Q96.45 3.54 96.52 3.54L96.52 3.54Q96.85 3.54 97.27 3.53Q97.68 3.51 97.78 3.51L97.78 3.51Q98.01 3.51 98.11 3.56Q98.20 3.61 98.20 3.75L98.20 3.75Q98.20 3.81 98.12 3.86Q98.04 3.91 97.96 3.94Q97.87 3.98 97.79 4.00L97.79 4.00L97.71 4.03Q97.24 4.28 97.24 5.61L97.24 5.61L97.24 6.15Q97.24 7.21 97.17 9.83Q97.09 12.46 97.09 13.08L97.09 13.08L97.09 13.36Q97.09 13.68 96.89 13.68L96.89 13.68Q96.77 13.68 96.67 13.58L96.67 13.58Q92.02 8.19 91.12 7.17Q90.22 6.16 90.12 6.16L90.12 6.16Q89.98 6.16 89.98 7.11L89.98 7.11Q89.98 8.44 89.92 9.97Q89.87 11.51 89.87 11.65L89.87 11.65Q89.87 12.28 90.08 12.61Q90.30 12.94 90.55 12.98Q90.80 13.02 91.02 13.07Q91.24 13.12 91.24 13.26L91.24 13.26Q91.24 13.41 91.19 13.45Q91.14 13.50 91.01 13.50L91.01 13.50Q90.92 13.50 90.57 13.48Q90.23 13.47 89.52 13.47L89.52 13.47Q89.39 13.47 89.00 13.48Q88.61 13.50 88.33 13.50L88.33 13.50Q88.02 13.50 88.02 13.27L88.02 13.27Q88.02 13.15 88.20 13.11Q88.38 13.08 88.65 12.89Q88.91 12.71 89.05 12.21L89.05 12.21Q89.14 11.89 89.26 9.60Q89.39 7.32 89.39 6.45L89.39 6.45Q89.39 5.25 89.05 4.65Q88.72 4.06 87.96 3.98L87.96 3.98Q87.78 3.96 87.78 3.77ZM105.95 5.32L105.95 5.32Q105.95 4.76 106.09 3.88L106.09 3.88Q106.09 3.85 106.10 3.78Q106.11 3.71 106.11 3.69Q106.12 3.67 106.13 3.62Q106.13 3.57 106.15 3.55Q106.16 3.53 106.18 3.49Q106.20 3.46 106.23 3.44Q106.26 3.43 106.30 3.42Q106.34 3.40 106.40 3.39Q106.46 3.39 106.53 3.39L106.53 3.39Q106.75 3.39 107.71 3.44Q108.67 3.50 110.47 3.50L110.47 3.50Q113.55 3.50 114.79 3.43L114.79 3.43Q114.80 3.43 114.83 3.42Q114.87 3.42 114.88 3.42L114.88 3.42Q115.04 3.42 115.09 3.50Q115.15 3.58 115.15 3.65L115.15 3.65Q115.15 3.75 115.19 4.24Q115.23 4.73 115.23 4.79L115.23 4.79Q115.23 5.14 115.19 5.23Q115.15 5.32 115.01 5.32L115.01 5.32Q114.90 5.32 114.86 5.15L114.86 5.15Q114.74 4.75 114.66 4.60Q114.58 4.45 114.30 4.34Q114.02 4.23 113.44 4.23L113.44 4.23L111.62 4.23Q111.29 4.23 111.21 4.36Q111.13 4.49 111.13 5.12L111.13 5.12L111.13 5.81Q111.13 7.69 111.11 9.11Q111.09 10.54 111.09 10.93L111.09 10.93Q111.09 11.13 111.08 11.43Q111.08 11.73 111.08 11.84L111.08 11.84Q111.08 12.45 111.27 12.64L111.27 12.64Q111.45 12.81 111.68 12.90Q111.90 12.99 112.06 13.01Q112.22 13.02 112.34 13.08Q112.45 13.13 112.45 13.26L112.45 13.26Q112.45 13.41 112.38 13.45Q112.31 13.50 112.11 13.50L112.11 13.50Q111.94 13.50 111.37 13.44Q110.80 13.38 110.56 13.38L110.56 13.38Q110.39 13.38 109.88 13.43Q109.37 13.48 109.13 13.48L109.13 13.48Q108.61 13.48 108.61 13.26L108.61 13.26Q108.61 13.12 108.70 13.07Q108.78 13.02 109.02 12.98Q109.27 12.95 109.34 12.94L109.34 12.94Q109.82 12.82 109.87 12.38L109.87 12.38Q110.01 11.14 110.01 7.08L110.01 7.08L110.00 4.58Q110.00 4.31 109.84 4.25Q109.69 4.19 108.93 4.19L108.93 4.19Q107.95 4.19 107.46 4.24Q106.96 4.30 106.88 4.35Q106.79 4.40 106.68 4.54L106.68 4.54Q106.55 4.70 106.48 4.91Q106.40 5.11 106.38 5.24Q106.36 5.38 106.30 5.47Q106.23 5.56 106.11 5.56L106.11 5.56Q105.95 5.56 105.95 5.32ZM123.34 10.82L123.34 10.82Q123.34 10.53 123.54 10.53L123.54 10.53Q123.72 10.53 123.76 10.67L123.76 10.67Q123.90 11.00 124.02 11.25Q124.14 11.49 124.40 11.85Q124.67 12.21 124.98 12.44Q125.29 12.67 125.77 12.84Q126.25 13.01 126.83 13.01L126.83 13.01Q127.88 13.01 128.51 12.45Q129.15 11.90 129.15 11.00L129.15 11.00Q129.15 10.35 128.72 9.90Q128.28 9.46 127.72 9.27Q127.16 9.09 126.30 8.77Q125.44 8.46 124.89 8.13L124.89 8.13Q123.62 7.38 123.62 6.08L123.62 6.08Q123.62 4.83 124.52 4.08Q125.43 3.33 126.87 3.33L126.87 3.33Q127.40 3.33 128.13 3.56Q128.87 3.79 128.88 3.79L128.88 3.79Q128.93 3.79 129.04 3.74Q129.15 3.68 129.21 3.68L129.21 3.68Q129.39 3.68 129.42 3.79L129.42 3.79Q129.71 5.49 129.71 5.70L129.71 5.70Q129.71 6.09 129.51 6.09L129.51 6.09Q129.39 6.09 129.32 5.89L129.32 5.89Q129.15 5.49 128.99 5.24Q128.83 4.98 128.76 4.91Q128.69 4.84 128.39 4.58L128.39 4.58Q127.64 3.91 126.56 3.91L126.56 3.91Q125.69 3.91 125.10 4.33Q124.52 4.75 124.52 5.46L124.52 5.46Q124.52 6.09 124.86 6.50Q125.20 6.90 125.78 7.13Q126.35 7.35 126.98 7.55Q127.61 7.74 128.32 8.09Q129.02 8.44 129.49 8.93L129.49 8.93Q130.05 9.53 130.05 10.43L130.05 10.43Q130.05 11.90 129.11 12.76Q128.17 13.62 126.78 13.62L126.78 13.62Q125.82 13.62 125.23 13.52Q124.64 13.41 124.03 13.09L124.03 13.09Q123.84 12.98 123.59 12.00Q123.34 11.02 123.34 10.82ZM148.12 3.72L148.12 3.72Q148.12 3.51 148.25 3.51L148.25 3.51Q148.29 3.51 148.43 3.52Q148.57 3.53 148.81 3.53L148.81 3.53Q149.09 3.53 149.92 3.52Q150.75 3.51 150.85 3.51L150.85 3.51Q151.17 3.51 151.66 3.49Q152.15 3.47 152.39 3.47L152.39 3.47Q153.66 3.47 154.52 4.08Q155.37 4.69 155.37 5.81L155.37 5.81Q155.37 6.22 155.22 6.57Q155.08 6.93 154.88 7.15Q154.67 7.38 154.47 7.54Q154.27 7.70 154.12 7.79Q153.97 7.88 153.97 7.90L153.97 7.90Q153.97 7.94 154.21 8.00Q154.45 8.06 154.78 8.21Q155.12 8.36 155.45 8.61Q155.78 8.86 156.02 9.36Q156.25 9.86 156.25 10.53L156.25 10.53Q156.25 11.13 155.90 11.82Q155.55 12.50 155.08 12.82L155.08 12.82Q154.46 13.26 153.93 13.40Q153.40 13.55 152.64 13.55L152.64 13.55Q152.08 13.55 151.16 13.47Q150.23 13.40 150.14 13.40L150.14 13.40Q149.98 13.40 149.58 13.43Q149.18 13.45 148.93 13.45L148.93 13.45L148.74 13.45Q148.44 13.45 148.44 13.24L148.44 13.24Q148.44 13.05 148.60 13.05L148.60 13.05Q148.68 13.05 148.78 13.04Q148.88 13.03 148.92 13.03L148.92 13.03Q149.04 13.03 149.16 12.94Q149.28 12.85 149.41 12.54Q149.53 12.22 149.55 11.73L149.55 11.73Q149.59 10.82 149.59 7.36L149.59 7.36L149.59 4.98Q149.59 4.89 149.56 4.75Q149.52 4.62 149.41 4.40Q149.31 4.19 149.04 4.04Q148.76 3.89 148.36 3.89L148.36 3.89Q148.12 3.89 148.12 3.72ZM150.65 12.15L150.65 12.15Q150.65 12.99 152.03 12.99L152.03 12.99L152.35 12.99Q153.10 12.99 153.55 12.92L153.55 12.92Q154.21 12.81 154.64 12.24Q155.06 11.66 155.06 10.86L155.06 10.86Q155.06 10.18 154.81 9.68Q154.56 9.18 154.24 8.93Q153.92 8.68 153.47 8.54Q153.03 8.40 152.79 8.37Q152.54 8.34 152.32 8.34L152.32 8.34Q151.87 8.34 151.59 8.34Q151.30 8.33 151.22 8.33Q151.14 8.33 151.09 8.32Q151.05 8.32 151.02 8.32L151.02 8.32Q150.89 8.32 150.84 8.35Q150.78 8.39 150.73 8.62Q150.68 8.85 150.68 9.28Q150.67 9.72 150.67 10.58L150.67 10.58L150.67 10.70Q150.67 11.21 150.67 11.54Q150.67 11.86 150.66 11.99Q150.65 12.12 150.65 12.15ZM150.74 5.40L150.74 5.81Q150.74 6.51 150.75 6.90Q150.75 7.29 150.78 7.50Q150.81 7.71 150.84 7.77Q150.86 7.83 150.92 7.83L150.92 7.83Q151.31 7.87 151.63 7.87L151.63 7.87L152.53 7.87Q153.41 7.87 153.85 7.41Q154.29 6.94 154.29 6.22L154.29 6.22Q154.29 5.43 153.56 4.70Q152.82 3.96 151.47 3.96L151.47 3.96Q151.03 3.96 150.88 4.22Q150.74 4.48 150.74 5.40L150.74 5.40ZM163.53 3.81L163.53 3.81Q163.53 3.65 163.69 3.61Q163.86 3.57 164.40 3.57L164.40 3.57Q164.49 3.57 164.79 3.58Q165.09 3.60 165.21 3.60L165.21 3.60Q165.37 3.60 165.78 3.59Q166.19 3.58 166.40 3.58L166.40 3.58Q167.10 3.58 167.10 3.75L167.10 3.75Q167.10 3.91 166.81 4.01Q166.52 4.12 166.52 4.24L166.52 4.24Q166.52 4.38 166.61 4.61Q166.70 4.83 166.79 4.97Q166.88 5.11 167.06 5.38Q167.24 5.64 167.27 5.70L167.27 5.70Q167.75 6.45 168.26 7.14Q168.77 7.83 168.84 7.83L168.84 7.83Q168.92 7.83 169.05 7.66Q169.18 7.50 169.40 7.13Q169.62 6.75 169.78 6.52L169.78 6.52Q169.82 6.45 169.98 6.22Q170.14 5.98 170.20 5.88Q170.27 5.78 170.39 5.58Q170.52 5.38 170.58 5.27Q170.63 5.17 170.71 5.02Q170.79 4.87 170.81 4.77Q170.84 4.68 170.84 4.59L170.84 4.59Q170.84 4.14 170.37 4.03L170.37 4.03Q170.31 4.02 170.20 4.00Q170.10 3.99 170.05 3.98Q170.00 3.96 169.93 3.93Q169.86 3.91 169.83 3.86Q169.81 3.81 169.81 3.74L169.81 3.74Q169.81 3.57 170.20 3.57L170.20 3.57Q170.27 3.57 170.46 3.58Q170.65 3.58 170.77 3.58L170.77 3.58Q171.09 3.58 171.55 3.59Q172.00 3.60 172.26 3.60L172.26 3.60Q172.94 3.60 172.94 3.81L172.94 3.81Q172.94 3.86 172.86 3.91Q172.77 3.95 172.62 4.02Q172.47 4.09 172.34 4.19L172.34 4.19Q171.77 4.63 170.65 6.31Q169.54 7.99 169.39 8.19L169.39 8.19Q169.16 8.47 169.11 8.81Q169.05 9.14 169.05 9.95L169.05 9.95Q169.05 10.14 169.06 10.73Q169.06 11.33 169.06 11.58L169.06 11.58L169.06 11.91Q169.06 12.38 169.22 12.64Q169.39 12.91 169.53 12.96Q169.67 13.01 169.81 13.01L169.81 13.01Q169.83 13.01 169.95 13.01Q170.06 13.02 170.09 13.02L170.09 13.02Q170.18 13.02 170.24 13.08Q170.30 13.15 170.30 13.22L170.30 13.22Q170.30 13.36 170.23 13.40Q170.16 13.44 169.96 13.44L169.96 13.44Q169.89 13.44 169.35 13.43Q168.81 13.43 168.56 13.43L168.56 13.43Q168.07 13.43 167.66 13.45Q167.26 13.48 167.02 13.48L167.02 13.48Q166.63 13.48 166.63 13.33L166.63 13.33Q166.63 13.20 166.70 13.15Q166.78 13.10 166.96 13.09Q167.15 13.08 167.23 13.05L167.23 13.05Q167.82 12.87 167.82 12.19L167.82 12.19Q167.82 12.11 167.82 11.92Q167.83 11.73 167.84 11.12Q167.85 10.50 167.85 9.35L167.85 9.35Q167.85 9.13 167.81 8.97Q167.78 8.81 167.73 8.65Q167.68 8.50 167.49 8.20Q167.30 7.91 167.12 7.64Q166.94 7.36 166.50 6.72Q166.05 6.08 165.65 5.46L165.65 5.46Q165.21 4.80 164.86 4.46Q164.51 4.12 164.32 4.05Q164.14 3.99 163.88 3.99L163.88 3.99Q163.53 3.99 163.53 3.81ZM190.48 3.77L190.48 3.77Q190.48 3.68 190.58 3.60Q190.68 3.53 190.83 3.53L190.83 3.53Q190.92 3.53 191.11 3.54Q191.31 3.54 191.37 3.54L191.37 3.54Q191.58 3.54 191.76 3.53Q191.94 3.51 192.05 3.51L192.05 3.51Q192.18 3.51 192.35 3.59Q192.51 3.67 192.54 3.75L192.54 3.75Q192.57 3.79 192.70 3.94Q192.82 4.09 193.03 4.33Q193.24 4.56 193.41 4.79L193.41 4.79Q195.31 7.27 198.51 10.77L198.51 10.77Q198.59 10.86 198.71 10.99Q198.83 11.12 198.88 11.18Q198.93 11.24 198.98 11.30Q199.04 11.35 199.07 11.38Q199.11 11.40 199.14 11.40L199.14 11.40Q199.28 11.40 199.28 10.53L199.28 10.53L199.28 8.89Q199.28 7.95 199.27 7.31Q199.26 6.66 199.25 6.38Q199.25 6.09 199.25 6.02L199.25 6.02L199.25 5.92Q199.25 5.45 199.18 5.11Q199.12 4.77 199.04 4.59Q198.95 4.41 198.79 4.28Q198.63 4.16 198.52 4.12Q198.41 4.09 198.20 4.05Q197.99 4.00 197.90 3.98L197.90 3.98Q197.62 3.89 197.62 3.74L197.62 3.74Q197.62 3.53 197.89 3.53L197.89 3.53Q197.97 3.53 198.56 3.54Q199.15 3.54 199.22 3.54L199.22 3.54Q199.56 3.54 199.97 3.53Q200.38 3.51 200.48 3.51L200.48 3.51Q200.72 3.51 200.81 3.56Q200.90 3.61 200.90 3.75L200.90 3.75Q200.90 3.81 200.82 3.86Q200.75 3.91 200.66 3.94Q200.58 3.98 200.49 4.00L200.49 4.00L200.41 4.03Q199.95 4.28 199.95 5.61L199.95 5.61L199.95 6.15Q199.95 7.21 199.87 9.83Q199.79 12.46 199.79 13.08L199.79 13.08L199.79 13.36Q199.79 13.68 199.60 13.68L199.60 13.68Q199.47 13.68 199.37 13.58L199.37 13.58Q194.73 8.19 193.82 7.17Q192.92 6.16 192.82 6.16L192.82 6.16Q192.68 6.16 192.68 7.11L192.68 7.11Q192.68 8.44 192.63 9.97Q192.57 11.51 192.57 11.65L192.57 11.65Q192.57 12.28 192.79 12.61Q193.00 12.94 193.26 12.98Q193.51 13.02 193.72 13.07Q193.94 13.12 193.94 13.26L193.94 13.26Q193.94 13.41 193.89 13.45Q193.84 13.50 193.72 13.50L193.72 13.50Q193.62 13.50 193.28 13.48Q192.93 13.47 192.22 13.47L192.22 13.47Q192.09 13.47 191.70 13.48Q191.31 13.50 191.03 13.50L191.03 13.50Q190.72 13.50 190.72 13.27L190.72 13.27Q190.72 13.15 190.90 13.11Q191.09 13.08 191.35 12.89Q191.62 12.71 191.76 12.21L191.76 12.21Q191.84 11.89 191.97 9.60Q192.09 7.32 192.09 6.45L192.09 6.45Q192.09 5.25 191.76 4.65Q191.42 4.06 190.67 3.98L190.67 3.98Q190.48 3.96 190.48 3.77ZM208.46 13.33L208.46 13.33Q208.46 13.13 208.67 13.06L208.67 13.06Q209.12 12.89 209.45 12.31Q209.79 11.73 211.12 8.83L211.12 8.83Q212.49 5.87 213.54 3.63L213.54 3.63Q213.64 3.42 213.72 3.36Q213.79 3.30 213.96 3.30L213.96 3.30Q214.09 3.30 214.13 3.36Q214.17 3.42 214.31 3.82L214.31 3.82Q214.40 4.06 214.46 4.23Q214.52 4.40 214.66 4.77Q214.80 5.15 214.97 5.56L214.97 5.56Q215.42 6.66 216.52 9.22Q217.62 11.77 217.71 11.98L217.71 11.98Q217.95 12.46 218.25 12.71Q218.54 12.95 218.76 12.97Q218.97 12.99 219.12 13.04Q219.27 13.09 219.27 13.26L219.27 13.26Q219.27 13.47 218.89 13.47L218.89 13.47Q218.74 13.47 218.29 13.43Q217.84 13.38 217.63 13.38L217.63 13.38Q217.36 13.38 216.94 13.41Q216.52 13.44 216.33 13.44L216.33 13.44Q215.89 13.44 215.77 13.40Q215.66 13.37 215.66 13.24L215.66 13.24Q215.66 13.15 215.77 13.08Q215.88 13.02 216.01 13.00Q216.13 12.98 216.24 12.87Q216.36 12.77 216.36 12.59L216.36 12.59Q216.36 12.28 216.01 11.33Q215.66 10.37 215.42 9.93L215.42 9.93Q215.29 9.69 214.84 9.69L214.84 9.69Q214.77 9.69 214.23 9.70Q213.68 9.72 213.15 9.72L213.15 9.72L212.41 9.72Q211.78 9.72 211.62 9.79Q211.46 9.86 211.33 10.12L211.33 10.12Q211.25 10.30 211.05 10.70Q210.85 11.10 210.78 11.26Q210.71 11.41 210.61 11.65Q210.50 11.90 210.47 12.05Q210.43 12.19 210.43 12.31L210.43 12.31Q210.43 12.63 210.59 12.80Q210.76 12.96 210.95 12.98Q211.15 13.01 211.31 13.06Q211.47 13.12 211.47 13.26L211.47 13.26Q211.47 13.36 211.43 13.40Q211.39 13.45 211.23 13.45L211.23 13.45Q211.15 13.45 210.75 13.45Q210.35 13.44 210.07 13.44L210.07 13.44Q209.76 13.44 209.38 13.47Q208.99 13.50 208.87 13.50L208.87 13.50Q208.46 13.50 208.46 13.33ZM211.97 8.71L211.97 8.71Q211.97 8.89 212.10 8.93Q212.23 8.97 212.69 8.97L212.69 8.97L213.12 8.97L214.45 8.96Q215.00 8.96 215.00 8.74L215.00 8.74Q215.00 8.55 214.31 7.01Q213.63 5.46 213.44 5.46L213.44 5.46Q213.32 5.46 212.65 7.01Q211.97 8.55 211.97 8.71ZM227.16 10.82L227.16 10.82Q227.16 10.53 227.36 10.53L227.36 10.53Q227.54 10.53 227.58 10.67L227.58 10.67Q227.72 11.00 227.84 11.25Q227.96 11.49 228.23 11.85Q228.49 12.21 228.80 12.44Q229.11 12.67 229.59 12.84Q230.08 13.01 230.65 13.01L230.65 13.01Q231.70 13.01 232.34 12.45Q232.97 11.90 232.97 11.00L232.97 11.00Q232.97 10.35 232.54 9.90Q232.11 9.46 231.55 9.27Q230.99 9.09 230.12 8.77Q229.26 8.46 228.72 8.13L228.72 8.13Q227.44 7.38 227.44 6.08L227.44 6.08Q227.44 4.83 228.35 4.08Q229.25 3.33 230.69 3.33L230.69 3.33Q231.22 3.33 231.96 3.56Q232.69 3.79 232.71 3.79L232.71 3.79Q232.75 3.79 232.86 3.74Q232.97 3.68 233.03 3.68L233.03 3.68Q233.21 3.68 233.24 3.79L233.24 3.79Q233.53 5.49 233.53 5.70L233.53 5.70Q233.53 6.09 233.34 6.09L233.34 6.09Q233.21 6.09 233.14 5.89L233.14 5.89Q232.97 5.49 232.81 5.24Q232.65 4.98 232.58 4.91Q232.51 4.84 232.22 4.58L232.22 4.58Q231.46 3.91 230.38 3.91L230.38 3.91Q229.52 3.91 228.93 4.33Q228.34 4.75 228.34 5.46L228.34 5.46Q228.34 6.09 228.68 6.50Q229.03 6.90 229.60 7.13Q230.17 7.35 230.80 7.55Q231.43 7.74 232.14 8.09Q232.85 8.44 233.31 8.93L233.31 8.93Q233.87 9.53 233.87 10.43L233.87 10.43Q233.87 11.90 232.93 12.76Q231.99 13.62 230.61 13.62L230.61 13.62Q229.64 13.62 229.05 13.52Q228.47 13.41 227.85 13.09L227.85 13.09Q227.67 12.98 227.42 12.00Q227.16 11.02 227.16 10.82ZM241.56 13.33L241.56 13.33Q241.56 13.13 241.77 13.06L241.77 13.06Q242.21 12.89 242.55 12.31Q242.89 11.73 244.22 8.83L244.22 8.83Q245.59 5.87 246.64 3.63L246.64 3.63Q246.74 3.42 246.81 3.36Q246.89 3.30 247.06 3.30L247.06 3.30Q247.18 3.30 247.23 3.36Q247.27 3.42 247.41 3.82L247.41 3.82Q247.49 4.06 247.55 4.23Q247.62 4.40 247.76 4.77Q247.90 5.15 248.07 5.56L248.07 5.56Q248.51 6.66 249.61 9.22Q250.71 11.77 250.81 11.98L250.81 11.98Q251.05 12.46 251.34 12.71Q251.64 12.95 251.85 12.97Q252.07 12.99 252.22 13.04Q252.36 13.09 252.36 13.26L252.36 13.26Q252.36 13.47 251.99 13.47L251.99 13.47Q251.83 13.47 251.38 13.43Q250.94 13.38 250.73 13.38L250.73 13.38Q250.46 13.38 250.04 13.41Q249.62 13.44 249.42 13.44L249.42 13.44Q248.99 13.44 248.87 13.40Q248.75 13.37 248.75 13.24L248.75 13.24Q248.75 13.15 248.86 13.08Q248.98 13.02 249.10 13.00Q249.23 12.98 249.34 12.87Q249.45 12.77 249.45 12.59L249.45 12.59Q249.45 12.28 249.10 11.33Q248.75 10.37 248.51 9.93L248.51 9.93Q248.39 9.69 247.94 9.69L247.94 9.69Q247.87 9.69 247.32 9.70Q246.78 9.72 246.25 9.72L246.25 9.72L245.50 9.72Q244.87 9.72 244.71 9.79Q244.55 9.86 244.43 10.12L244.43 10.12Q244.34 10.30 244.15 10.70Q243.95 11.10 243.88 11.26Q243.81 11.41 243.70 11.65Q243.60 11.90 243.56 12.05Q243.53 12.19 243.53 12.31L243.53 12.31Q243.53 12.63 243.69 12.80Q243.85 12.96 244.05 12.98Q244.24 13.01 244.40 13.06Q244.57 13.12 244.57 13.26L244.57 13.26Q244.57 13.36 244.52 13.40Q244.48 13.45 244.33 13.45L244.33 13.45Q244.24 13.45 243.84 13.45Q243.45 13.44 243.17 13.44L243.17 13.44Q242.86 13.44 242.47 13.47Q242.09 13.50 241.96 13.50L241.96 13.50Q241.56 13.50 241.56 13.33ZM245.07 8.71L245.07 8.71Q245.07 8.89 245.20 8.93Q245.32 8.97 245.78 8.97L245.78 8.97L246.22 8.97L247.55 8.96Q248.09 8.96 248.09 8.74L248.09 8.74Q248.09 8.55 247.41 7.01Q246.72 5.46 246.54 5.46L246.54 5.46Q246.41 5.46 245.74 7.01Q245.07 8.55 245.07 8.71Z"></path></g></svg>