<svg data-v-423bf9ae="" xmlns="http://www.w3.org/2000/svg" viewBox="0 0 622.9185141414412 60" class="font"><!----><!----><!----><g data-v-423bf9ae="" id="901d2ff4-ebfd-4eb2-b613-05d65818efcc" fill="white" transform="matrix(4.224608525153769,0,0,4.224608525153769,-1.0139019780762055,-11.395881694731862)"><path d="M2.95 3.85Q2.83 4.19 2.83 4.66L2.83 4.66Q2.83 5.04 2.90 5.50L2.90 5.50Q2.91 5.60 2.94 5.90Q2.97 6.20 2.95 6.44L2.95 6.44Q2.93 7.29 2.84 9.17L2.84 9.17Q2.77 10.77 2.72 12.49Q2.66 14.21 2.66 15.65L2.66 15.65Q2.80 15.79 3.11 15.95L3.11 15.95Q3.39 16.09 3.51 16.21L3.51 16.21Q3.51 16.34 3.46 16.40Q3.40 16.46 3.26 16.56L3.26 16.56Q3.09 16.66 2.95 16.80L2.95 16.80Q2.80 16.73 2.42 16.67L2.42 16.67Q2.23 16.66 1.76 16.66L1.76 16.66Q1.29 16.66 0.97 16.63Q0.66 16.60 0.36 16.51L0.36 16.51Q0.34 16.49 0.29 16.41Q0.24 16.32 0.24 16.21L0.24 16.21Q0.24 16.06 0.36 15.95L0.36 15.95Q0.36 15.85 0.41 15.83Q0.45 15.81 0.55 15.81L0.55 15.81Q0.67 15.81 0.73 15.79L0.73 15.79Q0.87 15.74 0.92 15.65L0.92 15.65Q1.05 15.53 1.05 15.29L1.05 15.29Q1.05 15.18 1.02 15.03Q0.99 14.88 0.98 14.83L0.98 14.83Q0.92 14.57 0.92 14.50L0.92 14.50Q0.92 14.07 0.95 13.23L0.95 13.23L0.97 12.00Q0.95 11.93 0.94 11.74Q0.92 11.55 0.92 11.33L0.92 11.33L0.92 8.74L0.92 3.85Q0.66 3.85 0.51 3.80Q0.36 3.75 0.36 3.56L0.36 3.56L0.36 2.98Q0.36 2.86 0.46 2.86L0.46 2.86Q0.50 2.86 0.74 2.92Q0.98 2.98 1.22 2.98L1.22 2.98Q1.37 2.98 1.88 2.93L1.88 2.93Q1.99 2.91 2.28 2.88Q2.58 2.86 2.80 2.86L2.80 2.86Q3.28 2.86 3.51 2.98L3.51 2.98Q3.63 3.09 3.63 3.26L3.63 3.26Q3.63 3.49 3.44 3.67Q3.25 3.85 2.95 3.85L2.95 3.85ZM12.66 3.00Q12.66 3.12 12.59 3.25Q12.53 3.37 12.47 3.45Q12.40 3.53 12.38 3.56L12.38 3.56L11.80 3.56Q11.68 3.68 11.68 3.85L11.68 3.85Q11.68 3.92 11.73 4.14L11.73 4.14Q11.80 4.52 11.80 4.69L11.80 4.69L11.80 7.87Q11.80 12.96 12.03 16.17L12.03 16.17Q12.04 16.51 11.86 16.66Q11.68 16.81 11.41 16.81L11.41 16.81Q11.21 16.81 11.03 16.74Q10.84 16.67 10.74 16.58L10.74 16.58Q10.63 16.24 10.48 15.80Q10.33 15.36 10.15 14.80L10.15 14.80Q9.13 11.80 8.71 10.32L8.71 10.32Q8.58 9.84 8.33 9.28Q8.08 8.71 8.05 8.65L8.05 8.65Q7.97 8.47 7.92 8.35Q7.88 8.23 7.87 8.20L7.87 8.20Q7.76 7.95 7.70 7.56L7.70 7.56Q7.63 7.20 7.55 7.01Q7.46 6.82 7.22 6.69L7.22 6.69L7.22 8.65L7.22 10.89L7.22 13.15L7.22 13.99L7.22 15.39Q7.41 15.57 7.60 15.62Q7.78 15.67 8.05 15.67L8.05 15.67Q8.05 15.81 8.08 16.09L8.08 16.09Q8.11 16.31 8.11 16.39L8.11 16.39Q8.11 16.59 8.03 16.69Q7.95 16.79 7.74 16.79L7.74 16.79L7.11 16.80L5.24 16.84Q5.12 16.84 5.09 16.75Q5.05 16.66 5.05 16.48L5.05 16.48Q5.05 16.28 5.07 16.17L5.07 16.17L5.08 15.75Q5.11 15.76 5.20 15.79Q5.29 15.82 5.38 15.82L5.38 15.82Q5.54 15.82 5.54 15.67L5.54 15.67Q5.70 15.34 5.70 14.81L5.70 14.81Q5.70 14.59 5.67 14.20L5.67 14.20Q5.64 13.83 5.64 13.71L5.64 13.71Q5.64 13.22 5.59 12.21L5.59 12.21Q5.54 11.59 5.54 11.19L5.54 11.19L5.53 9.21Q5.53 8.89 5.47 8.36L5.47 8.36Q5.42 7.83 5.42 7.56L5.42 7.56Q5.42 7.48 5.35 7.13L5.35 7.13Q5.26 6.82 5.26 6.69L5.26 6.69L5.26 6.41L5.26 5.56Q5.26 5.35 5.25 5.26L5.25 5.26L5.24 4.84Q5.24 4.62 5.10 4.28L5.10 4.28Q4.98 4.00 4.98 3.88L4.98 3.88Q4.58 3.88 4.35 3.71Q4.13 3.54 4.13 3.32L4.13 3.32Q4.13 3.11 4.27 2.95Q4.41 2.80 4.62 2.80L4.62 2.80Q4.73 2.80 4.79 2.79Q4.86 2.79 4.91 2.79L4.91 2.79Q5.04 2.76 5.26 2.74L5.26 2.74Q5.36 2.73 5.49 2.75Q5.61 2.77 5.68 2.77L5.68 2.77Q5.96 2.80 6.17 2.80L6.17 2.80Q6.34 2.80 6.45 2.91Q6.57 3.02 6.62 3.15Q6.66 3.28 6.66 3.32L6.66 3.32Q7.21 4.12 7.60 5.01Q7.99 5.89 8.53 7.28L8.53 7.28Q8.99 8.50 9.18 8.93L9.18 8.93Q9.37 9.51 9.56 9.93Q9.76 10.36 10.04 10.89L10.04 10.89Q10.04 11.09 10.09 11.26Q10.14 11.44 10.28 11.76L10.28 11.76Q10.32 11.84 10.42 12.21L10.42 12.21Q10.53 12.56 10.67 12.94Q10.81 13.33 10.93 13.50L10.93 13.50Q10.96 13.54 10.97 13.49Q10.98 13.44 10.98 13.34L10.98 13.34Q10.98 13.13 10.92 12.40L10.92 12.40Q10.86 11.68 10.86 11.47L10.86 11.47Q10.86 10.84 10.92 9.27L10.92 9.27Q10.98 7.59 10.98 6.65L10.98 6.65L10.98 6.37Q10.98 5.94 10.84 5.24L10.84 5.24Q10.70 4.54 10.70 4.12L10.70 4.12Q10.43 3.85 10.23 3.70Q10.02 3.56 9.84 3.56L9.84 3.56Q9.76 3.47 9.65 3.40Q9.55 3.32 9.50 3.25Q9.45 3.18 9.45 3.08L9.45 3.08Q9.45 2.93 9.56 2.70L9.56 2.70Q9.69 2.70 9.77 2.74Q9.84 2.79 10.07 2.79L10.07 2.79Q10.33 2.79 10.49 2.75Q10.65 2.72 10.70 2.70L10.70 2.70Q10.86 2.74 11.06 2.74L11.06 2.74Q11.20 2.74 11.51 2.72L11.51 2.72Q11.94 2.69 12.12 2.70L12.12 2.70Q12.53 2.73 12.66 3.00L12.66 3.00ZM20.31 5.45Q20.24 5.38 20.19 5.18L20.19 5.18Q20.17 5.07 20.17 4.83L20.17 4.83Q20.17 4.56 20.15 4.37Q20.12 4.17 20.02 3.98L20.02 3.98Q19.89 3.85 19.57 3.85L19.57 3.85Q19.29 3.85 18.91 3.92L18.91 3.92Q18.47 3.98 18.28 3.98L18.28 3.98Q18.16 4.23 18.16 4.65L18.16 4.65Q18.16 4.98 18.23 5.40L18.23 5.40Q18.28 5.85 18.28 6.03L18.28 6.03L18.28 11.55L18.28 13.90L18.28 14.49Q18.28 14.80 18.24 15.06L18.24 15.06Q18.21 15.37 18.21 15.53L18.21 15.53Q18.21 15.79 18.28 15.95L18.28 15.95Q18.31 16.02 18.40 16.04Q18.48 16.07 18.54 16.09Q18.61 16.10 18.63 16.10L18.63 16.10Q18.87 16.13 19.01 16.21Q19.15 16.28 19.15 16.52L19.15 16.52Q19.12 16.55 19.04 16.62Q18.96 16.69 18.82 16.75Q18.69 16.81 18.56 16.81L18.56 16.81L15.93 16.81Q15.74 16.81 15.69 16.67Q15.64 16.52 15.64 16.23L15.64 16.23Q15.79 16.23 16.07 16.09L16.07 16.09Q16.35 15.95 16.51 15.95L16.51 15.95L16.52 13.50Q16.52 12.74 16.51 12.43L16.51 12.43Q16.49 12.03 16.49 11.26L16.49 11.26L16.51 8.95L16.51 7.49L16.51 6.90Q16.51 5.81 16.46 5.19Q16.41 4.58 16.21 3.98L16.21 3.98Q15.88 3.88 15.48 3.88L15.48 3.88L15.41 3.88Q14.73 3.88 14.29 4.18Q13.85 4.48 13.85 5.10L13.85 5.10Q13.85 5.25 13.89 5.45L13.89 5.45Q13.87 5.47 13.78 5.52Q13.69 5.57 13.59 5.57L13.59 5.57Q13.44 5.57 13.31 5.45L13.31 5.45Q13.31 5.28 13.26 4.83L13.26 4.83Q13.19 4.20 13.19 4.06L13.19 4.06Q13.19 3.64 13.31 3.39L13.31 3.39Q13.80 3.14 14.25 3.01Q14.70 2.88 15.30 2.88L15.30 2.88Q15.74 2.88 16.74 2.86L16.74 2.86Q17.54 2.81 18.28 2.81L18.28 2.81Q19.32 2.81 20.01 2.91Q20.71 3.01 20.89 3.39L20.89 3.39Q21.07 3.91 21.07 4.40L21.07 4.40Q21.07 4.86 20.89 5.15Q20.71 5.45 20.31 5.45L20.31 5.45ZM27.62 5.08Q27.55 4.98 27.50 4.82L27.50 4.82Q27.48 4.72 27.48 4.51L27.48 4.51Q27.48 4.28 27.45 4.16Q27.43 4.03 27.33 3.95L27.33 3.95Q27.05 3.79 26.75 3.65L26.75 3.65Q26.11 3.65 25.63 3.70Q25.14 3.75 24.77 3.95L24.77 3.95Q24.61 4.09 24.56 4.30Q24.51 4.52 24.51 4.90L24.51 4.90Q24.51 5.56 24.49 6.26L24.49 6.26L24.47 7.07Q24.47 7.28 24.54 7.91L24.54 7.91Q24.60 8.33 24.60 8.50L24.60 8.50Q24.60 8.83 24.47 9.09L24.47 9.09Q24.67 9.25 25.11 9.30Q25.55 9.35 26.18 9.35L26.18 9.35Q26.18 9.00 26.23 8.76Q26.28 8.51 26.47 8.51L26.47 8.51Q26.68 8.51 26.75 8.55Q26.82 8.58 27.05 8.79L27.05 8.79Q26.98 8.93 26.98 9.10L26.98 9.10Q26.96 9.17 26.96 9.34L26.96 9.34Q26.96 9.63 27.01 9.95L27.01 9.95Q27.03 10.35 27.03 10.51L27.03 10.51Q27.03 10.79 26.97 10.94Q26.91 11.09 26.75 11.09L26.75 11.09Q26.71 11.06 26.57 10.98Q26.43 10.89 26.31 10.77Q26.18 10.64 26.18 10.51L26.18 10.51L26.18 10.22L24.77 10.22Q24.61 10.67 24.61 11.41L24.61 11.41Q24.61 11.89 24.65 12.35L24.65 12.35Q24.68 12.91 24.68 13.12L24.68 13.12Q24.68 13.17 24.72 14.64L24.72 14.64Q24.77 15.26 24.77 15.65L24.77 15.65Q25.34 15.85 25.79 15.89Q26.25 15.93 27.05 15.93L27.05 15.93Q27.26 15.83 27.30 15.64L27.30 15.64Q27.34 15.51 27.34 15.23L27.34 15.23Q27.34 14.94 27.39 14.78Q27.44 14.62 27.62 14.52L27.62 14.52Q28 14.52 28.10 14.90Q28.20 15.29 28.20 15.93L28.20 15.93Q28.20 16.13 28.06 16.30Q27.93 16.48 27.62 16.80L27.62 16.80L26.18 16.80Q24.75 16.80 23.75 16.75Q22.75 16.70 21.62 16.51L21.62 16.51L21.62 15.93L22.76 15.93Q22.89 15.19 22.89 14.31L22.89 14.31Q22.89 13.82 22.83 12.78L22.83 12.78Q22.76 11.87 22.76 11.09L22.76 11.09L22.76 10.51L22.76 7.64L22.76 6.51L22.76 3.95L21.62 3.95L21.62 3.37Q22.20 3.22 23.38 3.08L23.38 3.08Q24.50 2.94 25.05 2.80L25.05 2.80L27.90 2.80Q27.93 2.83 28 2.91Q28.07 2.98 28.13 3.12Q28.20 3.25 28.20 3.37L28.20 3.37Q28.20 3.54 28.27 3.85L28.27 3.85Q28.34 4.34 28.34 4.44L28.34 4.44Q28.34 4.75 28.18 4.91Q28.03 5.08 27.62 5.08L27.62 5.08ZM34.78 9.02Q35.17 9.52 35.38 10.26Q35.59 11.00 35.68 11.78Q35.77 12.56 35.84 13.78L35.84 13.78Q35.92 15.19 36.01 15.82L36.01 15.82Q36.32 15.82 36.46 15.87Q36.60 15.92 36.60 16.11L36.60 16.11Q36.60 16.80 35.59 16.80L35.59 16.80Q35.29 16.80 34.51 16.70L34.51 16.70Q34.33 16.52 34.29 16.30L34.29 16.30L34.29 16.21Q34.29 16.11 34.37 15.72L34.37 15.72Q34.41 15.51 34.46 15.23Q34.51 14.94 34.51 14.63L34.51 14.63Q34.51 14.20 34.44 13.83L34.44 13.83Q34.37 13.38 34.37 12.70L34.37 12.70Q34.34 11.87 34.26 11.36Q34.17 10.85 33.85 10.40L33.85 10.40L33.68 10.15Q33.49 9.83 33.26 9.60L33.26 9.60Q33.26 9.48 33.20 9.41Q33.14 9.34 32.98 9.24L32.98 9.24Q32.79 9.13 32.66 9.02L32.66 9.02Q32.37 9.02 32.22 9.07Q32.07 9.11 32.07 9.30L32.07 9.30Q31.93 10.01 31.93 10.88L31.93 10.88Q31.93 11.48 32.02 12.54L32.02 12.54Q32.07 13.47 32.07 13.80L32.07 13.80Q32.07 14.42 32.12 14.82Q32.17 15.22 32.35 15.62L32.35 15.62Q32.35 15.72 32.43 15.79Q32.51 15.85 32.66 15.92L32.66 15.92Q32.80 15.99 32.88 16.04Q32.96 16.10 32.96 16.20L32.96 16.20Q32.96 16.25 32.96 16.42Q32.96 16.59 32.90 16.66Q32.84 16.73 32.70 16.73L32.70 16.73Q32.45 16.73 32.12 16.69L32.12 16.69Q31.99 16.69 31.71 16.67Q31.43 16.65 31.22 16.65L31.22 16.65Q30.59 16.65 30.27 16.81L30.27 16.81Q29.89 16.81 29.71 16.79Q29.53 16.76 29.37 16.63Q29.22 16.49 29.06 16.20L29.06 16.20Q29.27 16.02 29.47 15.97Q29.67 15.92 29.96 15.92L29.96 15.92L29.96 10.81Q29.96 10.67 29.99 10.48Q30.02 10.29 30.03 10.21L30.03 10.21Q30.10 9.88 30.10 9.62L30.10 9.62Q30.10 9.30 29.96 9.02L29.96 9.02Q29.96 8.82 30.00 8.65L30.00 8.65Q30.06 8.29 30.06 8.23L30.06 8.23Q30.09 7.76 30.09 7.55L30.09 7.55Q30.09 7.11 30.03 6.22L30.03 6.22Q30.02 6.05 29.99 5.54Q29.96 5.03 29.96 4.51L29.96 4.51Q29.48 4.51 29.18 4.40Q28.87 4.30 28.87 4.07L28.87 4.07Q28.87 3.64 29.00 3.45Q29.13 3.26 29.38 3.22Q29.62 3.18 30.17 3.18L30.17 3.18Q30.32 3.18 30.52 3.09L30.52 3.09Q30.69 3.01 30.84 3.01L30.84 3.01Q31.68 2.87 32.47 2.87L32.47 2.87Q33.70 2.87 34.57 3.25Q35.45 3.63 35.66 4.51L35.66 4.51Q35.84 5.24 35.84 5.85L35.84 5.85Q35.84 6.47 35.66 6.90L35.66 6.90Q35.55 7.18 35.29 7.52Q35.03 7.85 34.78 8.11L34.78 8.11L34.47 8.41Q34.47 8.58 34.62 8.71L34.62 8.71Q34.78 8.86 34.78 9.02L34.78 9.02ZM31.79 3.93Q31.79 5.31 31.91 7.63L31.91 7.63Q31.91 7.78 32.14 7.78L32.14 7.78Q32.44 7.78 32.91 7.59Q33.39 7.39 33.57 7.21L33.57 7.21Q33.57 7.04 33.71 6.57L33.71 6.57Q33.82 6.22 33.85 6.02L33.85 6.02Q33.91 5.73 33.91 5.54L33.91 5.54Q33.91 5.40 33.88 5.22Q33.85 5.04 33.85 4.82L33.85 4.82Q33.85 4.56 33.74 4.40Q33.63 4.24 33.47 4.10Q33.32 3.96 33.26 3.91L33.26 3.91L31.79 3.93ZM41.75 3.37Q41.75 3.29 41.80 3.18Q41.86 3.07 42.06 3.07L42.06 3.07Q42.35 3.07 42.49 3.12Q42.63 3.16 42.63 3.37L42.63 3.37Q42.77 3.51 42.77 3.74L42.77 3.74Q42.77 3.91 42.69 4.21L42.69 4.21Q42.63 4.47 42.63 4.54L42.63 4.54Q42.59 4.63 42.43 5.01Q42.27 5.38 42.08 5.59Q41.89 5.80 41.68 5.80L41.68 5.80Q41.55 5.80 41.44 5.74L41.44 5.74Q41.31 5.61 41.31 5.36L41.31 5.36Q41.31 5.24 41.37 4.87L41.37 4.87Q41.44 4.38 41.44 4.26L41.44 4.26Q41.22 4.02 40.80 3.84Q40.38 3.65 39.96 3.65L39.96 3.65Q39.73 4.09 39.73 5.00L39.73 5.00Q39.73 5.91 39.96 6.36L39.96 6.36Q40.14 6.73 40.47 7.02Q40.80 7.31 41.37 7.70L41.37 7.70Q42 8.13 42.39 8.48Q42.78 8.82 43.06 9.31L43.06 9.31Q43.41 9.91 43.64 10.37L43.64 10.37Q43.86 10.81 43.97 11.33Q44.09 11.84 44.09 12.33L44.09 12.33Q44.09 13.17 43.95 13.76Q43.82 14.34 43.53 14.99L43.53 14.99Q43.19 15.72 42.63 16.14Q42.07 16.55 41.16 16.77L41.16 16.77L39.96 16.77Q39.58 16.77 39.05 16.37Q38.53 15.96 38.18 15.58L38.18 15.58Q37.74 14.77 37.74 13.87L37.74 13.87Q37.74 13.44 37.87 12.91L37.87 12.91Q37.72 12.91 37.56 13.06L37.56 13.06Q37.44 13.22 37.28 13.22L37.28 13.22Q37.07 13.01 37.02 12.80Q36.97 12.60 36.97 12.32L36.97 12.32Q37.45 12.15 38.08 12.05L38.08 12.05Q38.39 12.00 38.72 11.91Q39.06 11.83 39.37 11.70L39.37 11.70Q39.69 11.70 39.89 11.91Q40.08 12.12 40.08 12.43L40.08 12.43Q40.08 12.67 39.96 12.91L39.96 12.91Q39.66 12.91 39.47 12.96Q39.27 13.01 39.06 13.22L39.06 13.22Q38.75 13.52 38.75 14.17L38.75 14.17Q38.75 14.73 39.00 15.24Q39.24 15.75 39.65 15.89L39.65 15.89Q39.83 15.89 39.96 15.74L39.96 15.74Q39.97 15.72 40.05 15.65Q40.14 15.58 40.26 15.58L40.26 15.58Q41.24 15.09 41.75 14.05Q42.27 13.01 42.27 11.68L42.27 11.68Q42.27 10.81 42.06 9.93L42.06 9.93Q41.82 9.48 41.56 9.22Q41.30 8.96 40.85 8.72L40.85 8.72Q40.45 8.53 40.19 8.32Q39.94 8.12 39.65 7.83L39.65 7.83Q39.51 7.69 39.27 7.55L39.27 7.55Q38.91 7.34 38.65 7.07L38.65 7.07Q38.57 6.97 38.25 6.65Q37.93 6.33 37.74 6.03Q37.56 5.73 37.56 5.46L37.56 5.46Q37.49 5.25 37.49 4.97L37.49 4.97Q37.49 4.03 38.46 3.07L38.46 3.07Q38.57 3.07 38.70 3.02Q38.82 2.97 38.86 2.95L38.86 2.95Q39.26 2.76 39.65 2.76L39.65 2.76Q39.91 2.76 40.10 2.79Q40.28 2.83 40.54 2.91L40.54 2.91L41.16 3.07Q41.19 3.09 41.27 3.16Q41.36 3.23 41.48 3.30Q41.61 3.37 41.75 3.37L41.75 3.37ZM51.44 5.45Q51.37 5.38 51.31 5.18L51.31 5.18Q51.30 5.07 51.30 4.83L51.30 4.83Q51.30 4.56 51.27 4.37Q51.24 4.17 51.14 3.98L51.14 3.98Q51.02 3.85 50.69 3.85L50.69 3.85Q50.41 3.85 50.04 3.92L50.04 3.92Q49.59 3.98 49.41 3.98L49.41 3.98Q49.28 4.23 49.28 4.65L49.28 4.65Q49.28 4.98 49.35 5.40L49.35 5.40Q49.41 5.85 49.41 6.03L49.41 6.03L49.41 11.55L49.41 13.90L49.41 14.49Q49.41 14.80 49.36 15.06L49.36 15.06Q49.34 15.37 49.34 15.53L49.34 15.53Q49.34 15.79 49.41 15.95L49.41 15.95Q49.43 16.02 49.52 16.04Q49.60 16.07 49.66 16.09Q49.73 16.10 49.76 16.10L49.76 16.10Q49.99 16.13 50.13 16.21Q50.27 16.28 50.27 16.52L50.27 16.52Q50.25 16.55 50.16 16.62Q50.08 16.69 49.95 16.75Q49.81 16.81 49.69 16.81L49.69 16.81L47.05 16.81Q46.86 16.81 46.81 16.67Q46.76 16.52 46.76 16.23L46.76 16.23Q46.91 16.23 47.19 16.09L47.19 16.09Q47.47 15.95 47.63 15.95L47.63 15.95L47.64 13.50Q47.64 12.74 47.63 12.43L47.63 12.43Q47.61 12.03 47.61 11.26L47.61 11.26L47.63 8.95L47.63 7.49L47.63 6.90Q47.63 5.81 47.58 5.19Q47.53 4.58 47.33 3.98L47.33 3.98Q47.00 3.88 46.61 3.88L46.61 3.88L46.54 3.88Q45.85 3.88 45.41 4.18Q44.97 4.48 44.97 5.10L44.97 5.10Q44.97 5.25 45.01 5.45L45.01 5.45Q45.00 5.47 44.91 5.52Q44.81 5.57 44.72 5.57L44.72 5.57Q44.56 5.57 44.44 5.45L44.44 5.45Q44.44 5.28 44.38 4.83L44.38 4.83Q44.31 4.20 44.31 4.06L44.31 4.06Q44.31 3.64 44.44 3.39L44.44 3.39Q44.93 3.14 45.37 3.01Q45.82 2.88 46.42 2.88L46.42 2.88Q46.86 2.88 47.87 2.86L47.87 2.86Q48.66 2.81 49.41 2.81L49.41 2.81Q50.44 2.81 51.14 2.91Q51.83 3.01 52.01 3.39L52.01 3.39Q52.19 3.91 52.19 4.40L52.19 4.40Q52.19 4.86 52.01 5.15Q51.83 5.45 51.44 5.45L51.44 5.45ZM58.74 5.08Q58.67 4.98 58.62 4.82L58.62 4.82Q58.60 4.72 58.60 4.51L58.60 4.51Q58.60 4.28 58.58 4.16Q58.55 4.03 58.45 3.95L58.45 3.95Q58.17 3.79 57.88 3.65L57.88 3.65Q57.23 3.65 56.75 3.70Q56.27 3.75 55.89 3.95L55.89 3.95Q55.73 4.09 55.69 4.30Q55.64 4.52 55.64 4.90L55.64 4.90Q55.64 5.56 55.61 6.26L55.61 6.26L55.59 7.07Q55.59 7.28 55.66 7.91L55.66 7.91Q55.72 8.33 55.72 8.50L55.72 8.50Q55.72 8.83 55.59 9.09L55.59 9.09Q55.79 9.25 56.23 9.30Q56.67 9.35 57.30 9.35L57.30 9.35Q57.30 9.00 57.35 8.76Q57.40 8.51 57.60 8.51L57.60 8.51Q57.81 8.51 57.88 8.55Q57.95 8.58 58.17 8.79L58.17 8.79Q58.10 8.93 58.10 9.10L58.10 9.10Q58.09 9.17 58.09 9.34L58.09 9.34Q58.09 9.63 58.13 9.95L58.13 9.95Q58.16 10.35 58.16 10.51L58.16 10.51Q58.16 10.79 58.09 10.94Q58.03 11.09 57.88 11.09L57.88 11.09Q57.83 11.06 57.69 10.98Q57.55 10.89 57.43 10.77Q57.30 10.64 57.30 10.51L57.30 10.51L57.30 10.22L55.89 10.22Q55.73 10.67 55.73 11.41L55.73 11.41Q55.73 11.89 55.78 12.35L55.78 12.35Q55.80 12.91 55.80 13.12L55.80 13.12Q55.80 13.17 55.85 14.64L55.85 14.64Q55.89 15.26 55.89 15.65L55.89 15.65Q56.46 15.85 56.92 15.89Q57.37 15.93 58.17 15.93L58.17 15.93Q58.38 15.83 58.42 15.64L58.42 15.64Q58.46 15.51 58.46 15.23L58.46 15.23Q58.46 14.94 58.51 14.78Q58.56 14.62 58.74 14.52L58.74 14.52Q59.12 14.52 59.22 14.90Q59.32 15.29 59.32 15.93L59.32 15.93Q59.32 16.13 59.19 16.30Q59.05 16.48 58.74 16.80L58.74 16.80L57.30 16.80Q55.87 16.80 54.87 16.75Q53.87 16.70 52.74 16.51L52.74 16.51L52.74 15.93L53.89 15.93Q54.01 15.19 54.01 14.31L54.01 14.31Q54.01 13.82 53.96 12.78L53.96 12.78Q53.89 11.87 53.89 11.09L53.89 11.09L53.89 10.51L53.89 7.64L53.89 6.51L53.89 3.95L52.74 3.95L52.74 3.37Q53.33 3.22 54.50 3.08L54.50 3.08Q55.62 2.94 56.17 2.80L56.17 2.80L59.02 2.80Q59.05 2.83 59.12 2.91Q59.19 2.98 59.26 3.12Q59.32 3.25 59.32 3.37L59.32 3.37Q59.32 3.54 59.39 3.85L59.39 3.85Q59.46 4.34 59.46 4.44L59.46 4.44Q59.46 4.75 59.30 4.91Q59.15 5.08 58.74 5.08L58.74 5.08ZM63.76 3.22Q63.60 3.54 63.36 3.78L63.36 3.78Q63.27 3.88 63.23 3.93Q63.20 3.99 63.20 4.09L63.20 4.09Q63.20 5.40 63.11 6.84Q63.03 8.27 63.01 8.55L63.01 8.55Q62.92 10.05 62.87 11.07Q62.82 12.08 62.82 13.13L62.82 13.13Q62.82 14.45 62.89 15.43L62.89 15.43L62.89 15.48Q62.89 15.65 62.93 15.67Q62.97 15.69 63.20 15.71L63.20 15.71Q63.39 15.72 63.51 15.71Q63.63 15.71 63.76 15.71L63.76 15.71Q63.80 15.71 63.95 15.71Q64.09 15.72 64.33 15.71L64.33 15.71L64.64 15.71L64.64 13.97L64.64 12.81Q64.76 12.68 64.92 12.68L64.92 12.68Q65.03 12.68 65.11 12.73Q65.20 12.78 65.23 12.81L65.23 12.81Q65.58 13.16 65.58 14.01L65.58 14.01Q65.58 14.38 65.53 14.76L65.53 14.76Q65.51 15.23 65.51 15.43L65.51 15.43Q65.51 15.51 65.56 15.74L65.56 15.74Q65.63 16.13 65.63 16.21L65.63 16.21Q65.63 16.46 65.51 16.59L65.51 16.59Q64.86 16.70 64.20 16.72L64.20 16.72Q63.77 16.73 62.93 16.73L62.93 16.73Q62.10 16.73 61.59 16.75Q61.07 16.77 60.58 16.87L60.58 16.87Q60.42 16.73 60.27 16.65L60.27 16.65Q60.12 16.56 60.05 16.49Q59.99 16.42 59.99 16.28L59.99 16.28Q59.99 16.10 60.14 16.05Q60.28 16.00 60.58 16.00L60.58 16.00Q60.77 15.81 60.82 15.58Q60.86 15.36 60.86 14.84L60.86 14.84Q61.05 13.89 61.10 12.69Q61.15 11.49 61.15 9.91L61.15 9.91L61.15 9.60L61.15 7.01Q61.15 6.05 61.10 5.36Q61.05 4.68 60.86 4.09L60.86 4.09Q60.86 3.96 60.80 3.91Q60.75 3.85 60.59 3.75L60.59 3.75Q60.40 3.64 60.27 3.53L60.27 3.53L60.27 2.94L60.58 2.94Q61.03 2.94 61.68 2.87L61.68 2.87Q61.84 2.86 62.24 2.83Q62.64 2.80 62.96 2.80L62.96 2.80Q63.35 2.80 63.53 2.83L63.53 2.83Q63.70 2.84 63.74 2.88Q63.77 2.93 63.76 3.04Q63.76 3.15 63.76 3.22L63.76 3.22ZM70.38 3.22Q70.22 3.54 69.99 3.78L69.99 3.78Q69.89 3.88 69.85 3.93Q69.82 3.99 69.82 4.09L69.82 4.09Q69.82 5.40 69.73 6.84Q69.65 8.27 69.64 8.55L69.64 8.55Q69.54 10.05 69.49 11.07Q69.44 12.08 69.44 13.13L69.44 13.13Q69.44 14.45 69.51 15.43L69.51 15.43L69.51 15.48Q69.51 15.65 69.55 15.67Q69.59 15.69 69.82 15.71L69.82 15.71Q70.01 15.72 70.13 15.71Q70.25 15.71 70.38 15.71L70.38 15.71Q70.42 15.71 70.57 15.71Q70.71 15.72 70.95 15.71L70.95 15.71L71.26 15.71L71.26 13.97L71.26 12.81Q71.39 12.68 71.54 12.68L71.54 12.68Q71.65 12.68 71.74 12.73Q71.82 12.78 71.85 12.81L71.85 12.81Q72.20 13.16 72.20 14.01L72.20 14.01Q72.20 14.38 72.16 14.76L72.16 14.76Q72.13 15.23 72.13 15.43L72.13 15.43Q72.13 15.51 72.18 15.74L72.18 15.74Q72.25 16.13 72.25 16.21L72.25 16.21Q72.25 16.46 72.13 16.59L72.13 16.59Q71.48 16.70 70.83 16.72L70.83 16.72Q70.39 16.73 69.55 16.73L69.55 16.73Q68.73 16.73 68.21 16.75Q67.69 16.77 67.20 16.87L67.20 16.87Q67.05 16.73 66.89 16.65L66.89 16.65Q66.74 16.56 66.67 16.49Q66.61 16.42 66.61 16.28L66.61 16.28Q66.61 16.10 66.76 16.05Q66.91 16.00 67.20 16.00L67.20 16.00Q67.40 15.81 67.44 15.58Q67.48 15.36 67.48 14.84L67.48 14.84Q67.68 13.89 67.73 12.69Q67.77 11.49 67.77 9.91L67.77 9.91L67.77 9.60L67.77 7.01Q67.77 6.05 67.73 5.36Q67.68 4.68 67.48 4.09L67.48 4.09Q67.48 3.96 67.42 3.91Q67.37 3.85 67.21 3.75L67.21 3.75Q67.02 3.64 66.89 3.53L66.89 3.53L66.89 2.94L67.20 2.94Q67.65 2.94 68.31 2.87L68.31 2.87Q68.46 2.86 68.86 2.83Q69.26 2.80 69.58 2.80L69.58 2.80Q69.97 2.80 70.15 2.83L70.15 2.83Q70.32 2.84 70.36 2.88Q70.39 2.93 70.39 3.04Q70.38 3.15 70.38 3.22L70.38 3.22ZM78.25 15.65Q78.25 13.79 78.20 12.54Q78.15 11.30 77.94 10.32L77.94 10.32Q77.66 10.32 77.03 10.19L77.03 10.19Q76.13 10.02 75.61 10.02L75.61 10.02Q75.40 10.22 75.36 10.57Q75.31 10.92 75.31 11.54L75.31 11.54Q75.10 12.32 75.04 13.24Q74.98 14.17 74.98 15.67L74.98 15.67Q75.11 15.76 75.22 15.79L75.22 15.79Q75.31 15.81 75.46 15.81L75.46 15.81Q75.60 15.81 75.70 15.83Q75.80 15.85 75.88 15.93L75.88 15.93Q75.88 16.16 75.87 16.32Q75.85 16.48 75.84 16.52L75.84 16.52Q75.47 16.77 75.10 16.79L75.10 16.79Q75.03 16.80 74.87 16.80L74.87 16.80Q74.61 16.80 74.35 16.76L74.35 16.76Q74.02 16.73 73.85 16.73L73.85 16.73Q73.53 16.73 73.25 16.83L73.25 16.83L72.63 16.24Q73.15 15.67 73.51 15.67L73.51 15.67Q73.72 15.67 73.77 15.52Q73.82 15.37 73.82 15.06L73.82 15.06Q73.99 13.96 74.31 11.42L74.31 11.42Q74.58 9.30 74.69 8.55L74.69 8.55Q74.69 7.94 74.87 7.32Q75.04 6.71 75.31 6.20L75.31 6.20Q75.52 5.39 75.87 4.72Q76.22 4.05 76.76 3.25L76.76 3.25Q76.79 3.22 76.91 3.12Q77.03 3.02 77.21 2.93Q77.39 2.84 77.59 2.84L77.59 2.84Q77.78 2.84 77.94 2.94L77.94 2.94Q78.23 3.08 78.52 3.46Q78.81 3.84 78.99 4.27Q79.17 4.70 79.17 5.01L79.17 5.01Q79.51 5.70 79.62 6.59L79.62 6.59Q79.73 7.57 80.01 10.78L80.01 10.78Q80.15 12.56 80.30 14.17L80.30 14.17L80.30 15.96Q80.30 16.03 80.36 16.12Q80.42 16.21 80.43 16.24L80.43 16.24Q80.58 16.42 80.58 16.55L80.58 16.55Q80.58 16.72 80.30 16.84L80.30 16.84L79.94 16.76Q79.52 16.76 79.10 16.80L79.10 16.80Q78.96 16.81 78.71 16.83Q78.46 16.84 78.25 16.84L78.25 16.84Q78.16 16.86 77.99 16.88Q77.83 16.90 77.73 16.90L77.73 16.90Q77.46 16.90 77.46 16.73L77.46 16.73Q77.46 16.58 77.59 16.32Q77.73 16.06 77.92 15.86Q78.11 15.65 78.25 15.65L78.25 15.65ZM76.76 4.70Q76.54 5.36 76.31 6.13Q76.08 6.90 75.88 7.67L75.88 7.67Q75.88 7.84 75.75 8.34L75.75 8.34Q75.61 8.96 75.61 9.17L75.61 9.17Q76.19 9.34 76.74 9.39Q77.29 9.44 77.94 9.44L77.94 9.44L77.94 7.67Q77.94 7.04 77.78 6.21Q77.62 5.38 77.38 4.70L77.38 4.70Q77.38 4.63 77.32 4.52Q77.27 4.41 77.07 4.41L77.07 4.41L76.76 4.70ZM87.05 9.02Q87.44 9.52 87.65 10.26Q87.86 11.00 87.95 11.78Q88.05 12.56 88.12 13.78L88.12 13.78Q88.20 15.19 88.28 15.82L88.28 15.82Q88.59 15.82 88.73 15.87Q88.87 15.92 88.87 16.11L88.87 16.11Q88.87 16.80 87.86 16.80L87.86 16.80Q87.57 16.80 86.79 16.70L86.79 16.70Q86.60 16.52 86.56 16.30L86.56 16.30L86.56 16.21Q86.56 16.11 86.65 15.72L86.65 15.72Q86.69 15.51 86.74 15.23Q86.79 14.94 86.79 14.63L86.79 14.63Q86.79 14.20 86.72 13.83L86.72 13.83Q86.65 13.38 86.65 12.70L86.65 12.70Q86.62 11.87 86.53 11.36Q86.45 10.85 86.13 10.40L86.13 10.40L85.96 10.15Q85.76 9.83 85.54 9.60L85.54 9.60Q85.54 9.48 85.48 9.41Q85.41 9.34 85.26 9.24L85.26 9.24Q85.06 9.13 84.94 9.02L84.94 9.02Q84.64 9.02 84.50 9.07Q84.35 9.11 84.35 9.30L84.35 9.30Q84.21 10.01 84.21 10.88L84.21 10.88Q84.21 11.48 84.29 12.54L84.29 12.54Q84.35 13.47 84.35 13.80L84.35 13.80Q84.35 14.42 84.40 14.82Q84.45 15.22 84.63 15.62L84.63 15.62Q84.63 15.72 84.71 15.79Q84.78 15.85 84.94 15.92L84.94 15.92Q85.08 15.99 85.16 16.04Q85.23 16.10 85.23 16.20L85.23 16.20Q85.23 16.25 85.23 16.42Q85.23 16.59 85.18 16.66Q85.12 16.73 84.98 16.73L84.98 16.73Q84.73 16.73 84.39 16.69L84.39 16.69Q84.27 16.69 83.99 16.67Q83.71 16.65 83.50 16.65L83.50 16.65Q82.87 16.65 82.54 16.81L82.54 16.81Q82.17 16.81 81.98 16.79Q81.80 16.76 81.65 16.63Q81.49 16.49 81.34 16.20L81.34 16.20Q81.55 16.02 81.75 15.97Q81.94 15.92 82.24 15.92L82.24 15.92L82.24 10.81Q82.24 10.67 82.26 10.48Q82.29 10.29 82.31 10.21L82.31 10.21Q82.38 9.88 82.38 9.62L82.38 9.62Q82.38 9.30 82.24 9.02L82.24 9.02Q82.24 8.82 82.28 8.65L82.28 8.65Q82.33 8.29 82.33 8.23L82.33 8.23Q82.36 7.76 82.36 7.55L82.36 7.55Q82.36 7.11 82.31 6.22L82.31 6.22Q82.29 6.05 82.26 5.54Q82.24 5.03 82.24 4.51L82.24 4.51Q81.76 4.51 81.45 4.40Q81.14 4.30 81.14 4.07L81.14 4.07Q81.14 3.64 81.28 3.45Q81.41 3.26 81.66 3.22Q81.90 3.18 82.45 3.18L82.45 3.18Q82.60 3.18 82.80 3.09L82.80 3.09Q82.96 3.01 83.12 3.01L83.12 3.01Q83.96 2.87 84.74 2.87L84.74 2.87Q85.97 2.87 86.85 3.25Q87.72 3.63 87.93 4.51L87.93 4.51Q88.12 5.24 88.12 5.85L88.12 5.85Q88.12 6.47 87.93 6.90L87.93 6.90Q87.82 7.18 87.56 7.52Q87.30 7.85 87.05 8.11L87.05 8.11L86.74 8.41Q86.74 8.58 86.90 8.71L86.90 8.71Q87.05 8.86 87.05 9.02L87.05 9.02ZM84.07 3.93Q84.07 5.31 84.18 7.63L84.18 7.63Q84.18 7.78 84.42 7.78L84.42 7.78Q84.71 7.78 85.19 7.59Q85.67 7.39 85.85 7.21L85.85 7.21Q85.85 7.04 85.99 6.57L85.99 6.57Q86.10 6.22 86.13 6.02L86.13 6.02Q86.18 5.73 86.18 5.54L86.18 5.54Q86.18 5.40 86.16 5.22Q86.13 5.04 86.13 4.82L86.13 4.82Q86.13 4.56 86.02 4.40Q85.90 4.24 85.75 4.10Q85.60 3.96 85.54 3.91L85.54 3.91L84.07 3.93ZM103.01 15.46Q102.87 15.71 102.65 15.95Q102.42 16.18 102.23 16.31L102.23 16.31Q101.42 16.83 100.51 16.83L100.51 16.83Q99.60 16.83 98.82 16.34Q98.04 15.86 97.66 15.16L97.66 15.16Q97.15 14.18 96.80 13.15L96.80 13.15Q96.61 12.40 96.56 11.64Q96.52 10.88 96.52 9.73L96.52 9.73Q96.52 9.55 96.49 9.21L96.49 9.21Q96.46 8.85 96.46 8.67L96.46 8.67Q96.46 8.34 96.52 8.01L96.52 8.01Q96.53 7.92 96.60 7.55Q96.67 7.17 96.67 6.92L96.67 6.92Q96.70 6.78 96.77 6.38L96.77 6.38Q96.82 6.01 96.89 5.78Q96.95 5.56 97.09 5.43L97.09 5.43Q97.24 5.22 97.55 4.75L97.55 4.75Q97.97 4.10 98.27 3.74Q98.57 3.37 99.03 3.11Q99.48 2.84 100.10 2.84L100.10 2.84Q100.38 2.84 100.53 2.87L100.53 2.87Q101.37 2.87 101.87 3.12Q102.37 3.37 102.80 4.02L102.80 4.02Q103.46 4.45 103.92 5.36Q104.37 6.27 104.47 7.36L104.47 7.36Q104.52 7.94 104.52 8.88L104.52 8.88L104.52 9.49Q104.52 10.92 104.29 11.91L104.29 11.91Q103.87 13.90 103.01 15.46L103.01 15.46ZM101.77 15.26Q101.95 14.80 102.18 14.08Q102.41 13.37 102.52 12.88L102.52 12.88Q102.70 12.31 102.75 11.73Q102.80 11.16 102.80 10.30L102.80 10.30Q102.80 10.01 102.86 9.56L102.86 9.56Q102.86 9.48 102.88 9.26Q102.90 9.04 102.90 8.85L102.90 8.85Q102.90 8.65 102.89 8.39Q102.87 8.13 102.86 7.99L102.86 7.99Q102.80 7.43 102.80 7.15L102.80 7.15Q102.66 6.87 102.52 6.31L102.52 6.31Q102.38 5.73 102.23 5.43L102.23 5.43L102.07 5.10Q101.82 4.55 101.63 4.24Q101.43 3.93 101.12 3.78L101.12 3.78Q100.84 3.78 100.56 3.75L100.56 3.75Q100.25 3.72 99.96 3.72L99.96 3.72Q99.54 4.14 99.29 4.60Q99.04 5.05 98.81 5.71L98.81 5.71Q98.62 6.09 98.57 6.48Q98.52 6.86 98.52 7.43L98.52 7.43Q98.41 8.33 98.41 9.42L98.41 9.42Q98.41 11.40 98.81 13.72L98.81 13.72Q98.91 13.92 98.97 14.14Q99.04 14.36 99.06 14.43L99.06 14.43Q99.15 14.73 99.21 14.89Q99.27 15.05 99.39 15.16L99.39 15.16Q99.50 15.16 99.53 15.20Q99.57 15.25 99.60 15.39Q99.62 15.53 99.71 15.61L99.71 15.61Q99.93 15.83 100.44 15.83L100.44 15.83Q100.87 15.83 101.27 15.67Q101.67 15.51 101.77 15.26L101.77 15.26ZM113.53 3.00Q113.53 3.12 113.46 3.25Q113.40 3.37 113.34 3.45Q113.27 3.53 113.25 3.56L113.25 3.56L112.67 3.56Q112.55 3.68 112.55 3.85L112.55 3.85Q112.55 3.92 112.60 4.14L112.60 4.14Q112.67 4.52 112.67 4.69L112.67 4.69L112.67 7.87Q112.67 12.96 112.90 16.17L112.90 16.17Q112.91 16.51 112.73 16.66Q112.55 16.81 112.28 16.81L112.28 16.81Q112.08 16.81 111.90 16.74Q111.71 16.67 111.61 16.58L111.61 16.58Q111.50 16.24 111.35 15.80Q111.20 15.36 111.02 14.80L111.02 14.80Q110.00 11.80 109.58 10.32L109.58 10.32Q109.45 9.84 109.20 9.28Q108.95 8.71 108.92 8.65L108.92 8.65Q108.84 8.47 108.79 8.35Q108.75 8.23 108.74 8.20L108.74 8.20Q108.63 7.95 108.57 7.56L108.57 7.56Q108.50 7.20 108.42 7.01Q108.33 6.82 108.09 6.69L108.09 6.69L108.09 8.65L108.09 10.89L108.09 13.15L108.09 13.99L108.09 15.39Q108.28 15.57 108.47 15.62Q108.65 15.67 108.92 15.67L108.92 15.67Q108.92 15.81 108.95 16.09L108.95 16.09Q108.98 16.31 108.98 16.39L108.98 16.39Q108.98 16.59 108.90 16.69Q108.82 16.79 108.61 16.79L108.61 16.79L107.98 16.80L106.11 16.84Q105.99 16.84 105.96 16.75Q105.92 16.66 105.92 16.48L105.92 16.48Q105.92 16.28 105.94 16.17L105.94 16.17L105.95 15.75Q105.98 15.76 106.07 15.79Q106.16 15.82 106.25 15.82L106.25 15.82Q106.41 15.82 106.41 15.67L106.41 15.67Q106.57 15.34 106.57 14.81L106.57 14.81Q106.57 14.59 106.54 14.20L106.54 14.20Q106.51 13.83 106.51 13.71L106.51 13.71Q106.51 13.22 106.46 12.21L106.46 12.21Q106.41 11.59 106.41 11.19L106.41 11.19L106.40 9.21Q106.40 8.89 106.34 8.36L106.34 8.36Q106.29 7.83 106.29 7.56L106.29 7.56Q106.29 7.48 106.22 7.13L106.22 7.13Q106.13 6.82 106.13 6.69L106.13 6.69L106.13 6.41L106.13 5.56Q106.13 5.35 106.12 5.26L106.12 5.26L106.11 4.84Q106.11 4.62 105.97 4.28L105.97 4.28Q105.85 4.00 105.85 3.88L105.85 3.88Q105.45 3.88 105.22 3.71Q105 3.54 105 3.32L105 3.32Q105 3.11 105.14 2.95Q105.28 2.80 105.49 2.80L105.49 2.80Q105.60 2.80 105.67 2.79Q105.73 2.79 105.78 2.79L105.78 2.79Q105.91 2.76 106.13 2.74L106.13 2.74Q106.23 2.73 106.36 2.75Q106.48 2.77 106.55 2.77L106.55 2.77Q106.83 2.80 107.04 2.80L107.04 2.80Q107.21 2.80 107.32 2.91Q107.44 3.02 107.48 3.15Q107.53 3.28 107.53 3.32L107.53 3.32Q108.08 4.12 108.47 5.01Q108.86 5.89 109.40 7.28L109.40 7.28Q109.86 8.50 110.05 8.93L110.05 8.93Q110.24 9.51 110.43 9.93Q110.63 10.36 110.91 10.89L110.91 10.89Q110.91 11.09 110.96 11.26Q111.01 11.44 111.15 11.76L111.15 11.76Q111.19 11.84 111.29 12.21L111.29 12.21Q111.40 12.56 111.54 12.94Q111.68 13.33 111.80 13.50L111.80 13.50Q111.83 13.54 111.84 13.49Q111.85 13.44 111.85 13.34L111.85 13.34Q111.85 13.13 111.79 12.40L111.79 12.40Q111.73 11.68 111.73 11.47L111.73 11.47Q111.73 10.84 111.79 9.27L111.79 9.27Q111.85 7.59 111.85 6.65L111.85 6.65L111.85 6.37Q111.85 5.94 111.71 5.24L111.71 5.24Q111.57 4.54 111.57 4.12L111.57 4.12Q111.30 3.85 111.10 3.70Q110.89 3.56 110.71 3.56L110.71 3.56Q110.63 3.47 110.52 3.40Q110.42 3.32 110.37 3.25Q110.32 3.18 110.32 3.08L110.32 3.08Q110.32 2.93 110.43 2.70L110.43 2.70Q110.56 2.70 110.64 2.74Q110.71 2.79 110.94 2.79L110.94 2.79Q111.20 2.79 111.36 2.75Q111.52 2.72 111.57 2.70L111.57 2.70Q111.73 2.74 111.93 2.74L111.93 2.74Q112.07 2.74 112.38 2.72L112.38 2.72Q112.81 2.69 112.99 2.70L112.99 2.70Q113.40 2.73 113.53 3.00L113.53 3.00ZM124.01 3.78Q123.96 3.79 123.96 3.92L123.96 3.92Q123.96 4.06 124.10 4.68L124.10 4.68Q124.29 5.43 124.29 5.77L124.29 5.77Q124.29 6.58 124.40 7.41Q124.50 8.23 124.74 9.66L124.74 9.66L124.84 10.29Q124.84 10.43 124.86 10.54Q124.88 10.65 125.01 10.78L125.01 10.78Q125.15 10.92 125.29 10.59Q125.43 10.26 125.43 10.00L125.43 10.00Q126.08 8.68 126.50 7.38Q126.91 6.08 127.09 4.62L127.09 4.62Q127.08 4.61 127.00 4.54Q126.92 4.47 126.81 4.41Q126.69 4.35 126.56 4.35L126.56 4.35L126.27 4.35Q126.24 4.33 126.17 4.24Q126.10 4.16 126.04 4.03Q125.97 3.91 125.97 3.78L125.97 3.78Q125.97 3.65 126.28 3.65L126.28 3.65Q126.46 3.65 126.97 3.71L126.97 3.71Q127.39 3.78 127.68 3.78L127.68 3.78Q127.93 3.78 128.18 3.71L128.18 3.71Q128.46 3.65 128.59 3.65L128.59 3.65Q128.84 3.65 129.09 3.78L129.09 3.78Q129.21 3.88 129.21 4.05L129.21 4.05Q129.21 4.27 129.01 4.45Q128.81 4.62 128.52 4.62L128.52 4.62L129.39 9.73Q129.65 9.45 129.78 9.16Q129.91 8.86 130.06 8.33L130.06 8.33Q130.19 7.88 130.26 7.70L130.26 7.70Q130.37 7.49 130.45 7.13Q130.54 6.78 130.59 6.44L130.59 6.44Q130.69 5.77 130.82 5.49L130.82 5.49Q130.97 5.14 131.05 4.68Q131.12 4.21 131.12 3.93L131.12 3.93Q131.10 3.93 131.02 3.95Q130.94 3.96 130.84 3.96L130.84 3.96Q130.51 3.96 130.51 3.78L130.51 3.78Q130.51 3.63 130.47 3.46L130.47 3.46Q130.45 3.40 130.44 3.32Q130.42 3.23 130.42 3.14L130.42 3.14Q130.42 2.94 130.55 2.93L130.55 2.93Q131.18 2.81 131.87 2.81L131.87 2.81Q132.82 2.81 133.32 3.04L133.32 3.04Q133.32 3.28 133.34 3.39L133.34 3.39L133.35 3.78Q133.28 3.85 133.10 3.91L133.10 3.91Q133 3.92 132.78 3.92L132.78 3.92Q132.57 3.92 132.43 3.94Q132.30 3.96 132.20 4.06L132.20 4.06Q132.10 4.17 132.05 4.36Q131.99 4.55 131.96 4.75Q131.92 4.94 131.91 5.00L131.91 5.00Q131.84 5.42 131.77 5.60L131.77 5.60Q131.45 6.37 131.27 7.10Q131.10 7.83 130.90 8.96L130.90 8.96L130.82 9.45L130.35 12.59Q130.27 13.27 130.03 14.90L130.03 14.90Q130.00 15.04 129.98 15.40L129.98 15.40Q129.92 15.96 129.85 16.32Q129.78 16.67 129.65 16.81L129.65 16.81Q129.39 16.81 129.19 16.54Q129.00 16.27 128.89 15.92Q128.79 15.57 128.79 15.39L128.79 15.39Q128.58 13.78 128.13 12.08Q127.68 10.39 127.09 8.88L127.09 8.88Q126.64 9.79 126.33 10.82Q126.01 11.84 125.64 13.33L125.64 13.33Q125.31 14.62 125.08 15.39Q124.85 16.16 124.56 16.81L124.56 16.81Q124.17 16.81 123.97 16.51Q123.77 16.21 123.69 15.68L123.69 15.68Q123.52 14.69 123.38 13.48Q123.24 12.26 123.20 11.96L123.20 11.96Q122.82 8.83 122.58 7.45L122.58 7.45Q122.58 6.50 122.44 5.68Q122.29 4.86 122.01 3.78L122.01 3.78Q121.76 3.89 121.62 3.89L121.62 3.89Q121.41 3.89 121.29 3.71Q121.17 3.53 121.17 3.22L121.17 3.22Q121.17 3.15 121.22 3.04Q121.27 2.93 121.45 2.93L121.45 2.93Q121.95 2.93 122.54 2.86L122.54 2.86Q123.19 2.80 123.49 2.80L123.49 2.80Q124.07 2.80 124.56 2.93L124.56 2.93Q124.57 2.93 124.64 2.94Q124.71 2.95 124.78 3.02Q124.84 3.09 124.84 3.22L124.84 3.22Q124.84 3.32 124.75 3.37Q124.67 3.43 124.47 3.51L124.47 3.51Q124.17 3.63 124.01 3.78L124.01 3.78ZM139.80 5.08Q139.73 4.98 139.68 4.82L139.68 4.82Q139.66 4.72 139.66 4.51L139.66 4.51Q139.66 4.28 139.64 4.16Q139.61 4.03 139.51 3.95L139.51 3.95Q139.23 3.79 138.94 3.65L138.94 3.65Q138.29 3.65 137.81 3.70Q137.33 3.75 136.95 3.95L136.95 3.95Q136.79 4.09 136.75 4.30Q136.70 4.52 136.70 4.90L136.70 4.90Q136.70 5.56 136.67 6.26L136.67 6.26L136.65 7.07Q136.65 7.28 136.72 7.91L136.72 7.91Q136.78 8.33 136.78 8.50L136.78 8.50Q136.78 8.83 136.65 9.09L136.65 9.09Q136.85 9.25 137.29 9.30Q137.73 9.35 138.36 9.35L138.36 9.35Q138.36 9.00 138.41 8.76Q138.46 8.51 138.66 8.51L138.66 8.51Q138.87 8.51 138.94 8.55Q139.01 8.58 139.23 8.79L139.23 8.79Q139.16 8.93 139.16 9.10L139.16 9.10Q139.15 9.17 139.15 9.34L139.15 9.34Q139.15 9.63 139.19 9.95L139.19 9.95Q139.22 10.35 139.22 10.51L139.22 10.51Q139.22 10.79 139.15 10.94Q139.09 11.09 138.94 11.09L138.94 11.09Q138.89 11.06 138.75 10.98Q138.61 10.89 138.49 10.77Q138.36 10.64 138.36 10.51L138.36 10.51L138.36 10.22L136.95 10.22Q136.79 10.67 136.79 11.41L136.79 11.41Q136.79 11.89 136.84 12.35L136.84 12.35Q136.86 12.91 136.86 13.12L136.86 13.12Q136.86 13.17 136.91 14.64L136.91 14.64Q136.95 15.26 136.95 15.65L136.95 15.65Q137.52 15.85 137.98 15.89Q138.43 15.93 139.23 15.93L139.23 15.93Q139.44 15.83 139.48 15.64L139.48 15.64Q139.52 15.51 139.52 15.23L139.52 15.23Q139.52 14.94 139.57 14.78Q139.62 14.62 139.80 14.52L139.80 14.52Q140.18 14.52 140.28 14.90Q140.38 15.29 140.38 15.93L140.38 15.93Q140.38 16.13 140.25 16.30Q140.11 16.48 139.80 16.80L139.80 16.80L138.36 16.80Q136.93 16.80 135.93 16.75Q134.93 16.70 133.80 16.51L133.80 16.51L133.80 15.93L134.95 15.93Q135.07 15.19 135.07 14.31L135.07 14.31Q135.07 13.82 135.02 12.78L135.02 12.78Q134.95 11.87 134.95 11.09L134.95 11.09L134.95 10.51L134.95 7.64L134.95 6.51L134.95 3.95L133.80 3.95L133.80 3.37Q134.39 3.22 135.56 3.08L135.56 3.08Q136.68 2.94 137.23 2.80L137.23 2.80L140.08 2.80Q140.11 2.83 140.18 2.91Q140.25 2.98 140.32 3.12Q140.38 3.25 140.38 3.37L140.38 3.37Q140.38 3.54 140.45 3.85L140.45 3.85Q140.52 4.34 140.52 4.44L140.52 4.44Q140.52 4.75 140.36 4.91Q140.21 5.08 139.80 5.08L139.80 5.08ZM145.64 7.71Q145.64 7.85 145.73 7.92Q145.81 7.98 146.06 8.09L146.06 8.09Q146.23 8.15 146.50 8.29L146.50 8.29Q146.97 8.76 147.30 9.59Q147.63 10.42 147.63 11.42L147.63 11.42Q147.69 11.77 147.69 12.24L147.69 12.24Q147.69 13.58 147.12 14.80Q146.55 16.02 145.64 16.58L145.64 16.58Q145.25 16.77 144.84 16.81Q144.42 16.86 143.64 16.86L143.64 16.86Q143.35 16.86 142.79 16.72L142.79 16.72Q142.20 16.58 141.92 16.58L141.92 16.58Q141.57 16.58 141.41 16.55Q141.25 16.52 141.16 16.40Q141.06 16.28 141.06 16.00L141.06 16.00L141.06 15.71L141.92 15.71Q142.00 15.36 142.06 14.59L142.06 14.59Q142.07 14.20 142.07 13.38L142.07 13.38Q142.07 12.56 142.09 11.99Q142.11 11.42 142.21 10.85L142.21 10.85L142.21 10.29L142.21 8.86L142.21 5.99L142.21 3.71Q141.64 3.71 141.35 3.61Q141.06 3.51 141.06 3.14L141.06 3.14Q141.25 2.95 141.58 2.91Q141.92 2.86 142.49 2.86L142.49 2.86Q143.92 2.86 144.73 2.95Q145.54 3.05 145.92 3.43L145.92 3.43Q145.98 3.54 146.03 3.63Q146.08 3.71 146.10 3.78L146.10 3.78Q146.31 4.14 146.41 4.42Q146.50 4.70 146.50 5.14L146.50 5.14Q146.57 5.33 146.57 5.63L146.57 5.63Q146.57 6.16 146.29 6.74Q146.02 7.32 145.64 7.71L145.64 7.71ZM143.92 3.71Q143.72 3.91 143.68 4.13Q143.64 4.35 143.64 4.86L143.64 4.86Q143.64 5.64 143.68 6.06Q143.72 6.47 143.92 6.86L143.92 6.86Q143.99 6.93 144.07 6.93L144.07 6.93Q144.19 6.93 144.30 6.83Q144.41 6.72 144.56 6.52L144.56 6.52L144.77 6.29Q144.97 5.73 145.08 5.31Q145.18 4.90 145.18 4.56L145.18 4.56Q145.18 4.23 145.07 4.00L145.07 4.00Q144.87 3.81 144.57 3.76Q144.27 3.71 143.92 3.71L143.92 3.71ZM145.07 15.43L145.64 14.85Q145.82 14.67 145.87 14.37Q145.92 14.07 145.92 13.72L145.92 13.72Q146.13 13.50 146.17 13.43Q146.20 13.36 146.20 13.15L146.20 13.15Q146.33 12.89 146.33 12.42L146.33 12.42Q146.33 12.22 146.26 11.49L146.26 11.49Q146.20 10.99 146.20 10.85L146.20 10.85L146.22 10.37Q146.22 10.21 146.17 10.05Q146.13 9.90 146.01 9.65L146.01 9.65Q146.01 9.65 146.01 9.63Q146.02 9.60 146.02 9.58L146.02 9.58L145.99 9.37Q145.98 9.32 145.92 9.18Q145.85 9.04 145.77 8.85L145.77 8.85Q145.35 8.43 144.86 8.21Q144.37 7.99 143.92 7.99L143.92 7.99Q143.74 8.19 143.69 8.49Q143.64 8.79 143.64 9.14L143.64 9.14L143.64 13.72L143.64 15.71Q144.20 15.71 144.54 15.66Q144.87 15.61 145.07 15.43L145.07 15.43Z"></path></g><!----><!----></svg>